<?xml version="1.0" encoding="UTF-8"?>
<svg version="1.1" xmlns="http://www.w3.org/2000/svg" width="380" height="380">
<path d="M0 0 C125.4 0 250.8 0 380 0 C380 125.4 380 250.8 380 380 C254.6 380 129.2 380 0 380 C0 254.6 0 129.2 0 0 Z " fill="#0B0B0B" transform="translate(0,0)"/>
<path d="M0 0 C49.17 0 98.34 0 149 0 C147.66852515 2.66294969 146.36187569 5.13660203 144.8203125 7.66015625 C144.17884277 8.711427 144.17884277 8.711427 143.52441406 9.78393555 C143.06260742 10.53586182 142.60080078 11.28778809 142.125 12.0625 C141.63741211 12.85760986 141.14982422 13.65271973 140.64746094 14.47192383 C132.14680879 28.29836746 123.39579618 41.94908473 114.49707031 55.5222168 C110.2689851 61.99369848 106.18908062 68.53588364 102.20068359 75.15698242 C98.46376686 81.32502218 94.52751787 87.35168312 90.5625 93.375 C85.35764111 101.28680358 80.37321845 109.2867291 75.55883789 117.44091797 C71.71311611 123.91218919 67.64225886 130.2151754 63.5 136.5 C57.6852587 145.32585431 52.15443912 154.27881399 46.76171875 163.3671875 C42.63233213 170.32269934 38.31824687 177.16078764 34 184 C32.98565083 185.60935846 31.97132912 187.21873421 30.95703125 188.828125 C28.90052995 192.09023861 26.83860916 195.34883894 24.7734375 198.60546875 C23.09058852 201.262268 21.42512068 203.92743177 19.7890625 206.61328125 C19.17804688 207.60714844 18.56703125 208.60101563 17.9375 209.625 C17.43089844 210.46289062 16.92429688 211.30078125 16.40234375 212.1640625 C15 214 15 214 12 215 C6.80130275 207.27669578 1.70348213 199.49015481 -3.375 191.6875 C-7.63386537 185.14431029 -11.90397959 178.61066813 -16.25 172.125 C-19.87482704 166.70107203 -23.48563654 161.26820197 -27.0625 155.8125 C-27.54041992 155.09271973 -28.01833984 154.37293945 -28.51074219 153.63134766 C-29.17251465 152.61693604 -29.17251465 152.61693604 -29.84765625 151.58203125 C-30.23961182 150.98624268 -30.63156738 150.3904541 -31.03540039 149.77661133 C-32.12916153 147.76210871 -32.76619317 146.29059761 -33 144 C-32.03125 141.88452148 -32.03125 141.88452148 -30.5 139.62109375 C-29.66927979 138.37162964 -29.66927979 138.37162964 -28.82177734 137.09692383 C-28.22059082 136.21931396 -27.6194043 135.3417041 -27 134.4375 C-25.78356404 132.61738137 -24.56741535 130.79707071 -23.3515625 128.9765625 C-22.76536133 128.10805664 -22.17916016 127.23955078 -21.57519531 126.34472656 C-19.79546434 123.69554239 -18.07321447 121.01458509 -16.375 118.3125 C-13.39521551 113.61188997 -10.39067086 108.9276428 -7.375 104.25 C-6.91915527 103.54012939 -6.46331055 102.83025879 -5.99365234 102.09887695 C-5.54973145 101.41140381 -5.10581055 100.72393066 -4.6484375 100.015625 C-4.25833496 99.41008789 -3.86823242 98.80455078 -3.46630859 98.18066406 C-2.98242676 97.46104492 -2.49854492 96.74142578 -2 96 C-1.76902115 95.41105453 -1.5380423 94.82210907 -1.30006409 94.21531677 C-0.12088702 91.79465206 0.79783016 90.58518288 3 89 C8.47844842 87.97810133 13.9041919 88.18613741 19.45703125 88.31640625 C21.08654146 88.32946914 22.71607925 88.33943005 24.34562683 88.34642029 C28.62564581 88.3730926 32.90399031 88.44180472 37.18334961 88.51934814 C41.55364326 88.59107713 45.9242087 88.62295221 50.29492188 88.65820312 C58.86404799 88.73317929 67.43181545 88.8525798 76 89 C75.20121933 88.83002502 74.40243866 88.66005005 73.57945251 88.48492432 C70.57128232 87.8442331 67.56333475 87.20250882 64.55552673 86.56011963 C62.6313815 86.14948953 60.70698973 85.74001519 58.78259277 85.33056641 C27.70520276 78.68962111 27.70520276 78.68962111 22 71 C21.401875 70.236875 20.80375 69.47375 20.1875 68.6875 C3.6182164 46.94031527 0 28.08142474 0 0 Z " fill="#887BB7" transform="translate(226,59)"/>
<path d="M0 0 C25.08 0 50.16 0 76 0 C76 24.32095553 76 24.32095553 73.5 31.75 C73.23227783 32.60650146 72.96455566 33.46300293 72.6887207 34.34545898 C68.05397471 48.60103422 61.72744342 62.27255658 51 73 C49.12866211 73.57495117 49.12866211 73.57495117 46.77734375 74.04296875 C45.86557373 74.22641846 44.95380371 74.40986816 44.0144043 74.59887695 C42.99902588 74.79312256 41.98364746 74.98736816 40.9375 75.1875 C39.8750708 75.39528076 38.8126416 75.60306152 37.71801758 75.81713867 C26.56707999 77.95871973 15.37771213 79.88888217 4.1875 81.8125 C3.2680661 81.97124603 2.3486322 82.12999207 1.40133667 82.29354858 C-1.23828696 82.74789048 -3.87871857 83.19715809 -6.51953125 83.64453125 C-7.316474 83.78178619 -8.11341675 83.91904114 -8.93450928 84.06045532 C-12.3588623 84.63459528 -15.51629085 85 -19 85 C-18.41393304 79.08112391 -17.56869298 73.36081542 -16.29296875 67.5546875 C-16.04296867 66.39527145 -16.04296867 66.39527145 -15.78791809 65.21243286 C-15.43624256 63.58678439 -15.08234838 61.96161442 -14.72631836 60.33691406 C-14.19362101 57.9029675 -13.66951362 55.46729014 -13.14648438 53.03125 C-11.03417855 43.26821642 -8.60668593 33.64618341 -6 24 C-4.02 16.08 -2.04 8.16 0 0 Z " fill="#877CB7" transform="translate(82,59)"/>
<path d="M0 0 C0 47.19 0 94.38 0 143 C-2.77611514 141.61194243 -3.22697466 139.88199969 -4.625 137.125 C-6.78432806 133.052675 -9.09867776 129.36558045 -11.875 125.6875 C-15.27918532 121.14213892 -18.10156057 116.44678812 -20.85449219 111.484375 C-24.83082782 104.38957207 -29.42281036 97.71600731 -34 91 C-37.12976174 86.37892017 -40.17122065 81.79308836 -42.89111328 76.91455078 C-44.25379675 74.56180667 -45.71251002 72.28125412 -47.1796875 69.9921875 C-50.88791836 64.1854558 -54.54284212 58.34677925 -58.1875 52.5 C-61.97327749 46.4284253 -65.76278315 40.35998979 -69.60546875 34.32421875 C-70.15887939 33.45410156 -70.71229004 32.58398438 -71.2824707 31.6875 C-72.32122209 30.05683709 -73.36260488 28.42784656 -74.40698242 26.80078125 C-74.8682251 26.07632813 -75.32946777 25.351875 -75.8046875 24.60546875 C-76.20671387 23.97793701 -76.60874023 23.35040527 -77.02294922 22.70385742 C-78 21 -78 21 -79 18 C-69.36419036 15.52554737 -59.6972734 13.22083504 -50 11 C-38.84147367 8.44237264 -27.73045451 5.75458042 -16.65234375 2.8671875 C-15.9267627 2.68043457 -15.20118164 2.49368164 -14.45361328 2.30126953 C-13.07172745 1.94547726 -11.69107981 1.58482387 -10.31201172 1.21826172 C-6.65325619 0.27965785 -3.85603638 0 0 0 Z " fill="#8679B4" transform="translate(191,206)"/>
<path d="M0 0 C11.6132167 -0.2319141 23.22588091 -0.40948884 34.84094334 -0.51812172 C40.2347205 -0.57026727 45.62691132 -0.64096382 51.01977539 -0.75439453 C56.22650103 -0.86322207 61.43170337 -0.92287602 66.63947868 -0.94877243 C68.62398197 -0.96722061 70.6084037 -1.00324943 72.59225655 -1.05730057 C88.14491028 -1.46410603 88.14491028 -1.46410603 92.71470642 2.14254761 C94.53532916 4.70618201 95.77647128 7.11290273 97 10 C97.9093491 11.44176685 98.84134615 12.86985654 99.80859375 14.2734375 C100.68676405 15.63942576 101.56305637 17.0066231 102.4375 18.375 C106.41472439 24.57367496 110.46861729 30.7047791 114.63671875 36.77734375 C116 39 116 39 116 41 C104.21364578 41.46490959 92.42949314 41.81947157 80.63581467 42.03624344 C75.15787203 42.14033626 69.68622879 42.28123928 64.21191406 42.50878906 C58.92041506 42.72734411 53.63493686 42.84590117 48.33927155 42.89754486 C46.32747733 42.9342974 44.31598778 43.00609662 42.30678558 43.11460114 C29.51582181 43.77740857 29.51582181 43.77740857 24 41 C18.93100404 36.06245461 15.96871295 29.70777046 13.08920288 23.33259201 C11.69424988 20.34521814 10.03209008 17.70058029 8.203125 14.9609375 C7.70039062 14.1771875 7.19765625 13.3934375 6.6796875 12.5859375 C5.68068007 11.04102437 4.68059254 9.49680939 3.6796875 7.953125 C3.19242187 7.19257813 2.70515625 6.43203125 2.203125 5.6484375 C1.77676758 4.99020996 1.35041016 4.33198242 0.91113281 3.65380859 C0 2 0 2 0 0 Z " fill="#867AB5" transform="translate(74,163)"/>
<path d="M0 0 C16.83 0 33.66 0 51 0 C51 26.73 51 53.46 51 81 C50.34 81 49.68 81 49 81 C47.86181641 79.46557617 47.86181641 79.46557617 46.6015625 77.29296875 C46.12871826 76.48891602 45.65587402 75.68486328 45.16870117 74.85644531 C44.65927979 73.97569336 44.1498584 73.09494141 43.625 72.1875 C42.5317933 70.33094339 41.43669584 68.47549901 40.33984375 66.62109375 C39.78151855 65.6760498 39.22319336 64.73100586 38.64794922 63.75732422 C36.22953822 59.71087476 33.7186198 55.72661713 31.1875 51.75 C30.19387746 50.1862824 29.20039151 48.62247799 28.20703125 47.05859375 C27.69350098 46.25019043 27.1799707 45.44178711 26.65087891 44.60888672 C22.89289155 38.67013297 19.17818274 32.70411932 15.45947266 26.74072266 C12.59486347 22.14766268 9.72552222 17.55827212 6.82421875 12.98828125 C6.35258301 12.24280029 5.88094727 11.49731934 5.39501953 10.72924805 C4.5311721 9.36510349 3.6638662 8.00314046 2.79248047 6.64379883 C0 2.22387664 0 2.22387664 0 0 Z " fill="#867AB4" transform="translate(9,59)"/>
<path d="M0 0 C49.17 0 98.34 0 149 0 C147.38262276 3.23475448 146.52370777 4.70572021 144 7 C143.67 5.35 143.34 3.7 143 2 C96.8 2 50.6 2 3 2 C2.0699111 4.7902667 1.81301231 6.76529542 1.68359375 9.66796875 C1.64169922 10.56064453 1.59980469 11.45332031 1.55664062 12.37304688 C1.51732422 13.30181641 1.47800781 14.23058594 1.4375 15.1875 C1.39431641 16.12787109 1.35113281 17.06824219 1.30664062 18.03710938 C1.20061335 20.35792854 1.09854971 22.67885325 1 25 C0.67 25 0.34 25 0 25 C0 16.75 0 8.5 0 0 Z " fill="#686184" transform="translate(226,59)"/>
<path d="M0 0 C0.495 0.99 0.495 0.99 1 2 C1.66 2 2.32 2 3 2 C4.6875 3.8125 4.6875 3.8125 6 6 C5 9 5 9 3 10 C2.67 55.21 2.34 100.42 2 147 C1.67 147 1.34 147 1 147 C1 99.81 1 52.62 1 4 C-29.69 3.67 -60.38 3.34 -92 3 C-92 2.67 -92 2.34 -92 2 C-61.64 2 -31.28 2 0 2 C0 1.34 0 0.68 0 0 Z " fill="#191528" transform="translate(190,202)"/>
<path d="M0 0 C0.495 0.99 0.495 0.99 1 2 C1.66 2 2.32 2 3 2 C4.6875 3.8125 4.6875 3.8125 6 6 C5.67 6.99 5.34 7.98 5 9 C2.9375 9.6875 2.9375 9.6875 1 10 C1 8.02 1 6.04 1 4 C-29.69 3.67 -60.38 3.34 -92 3 C-92 2.67 -92 2.34 -92 2 C-61.64 2 -31.28 2 0 2 C0 1.34 0 0.68 0 0 Z " fill="#12101E" transform="translate(190,202)"/>
<path d="M0 0 C29.7 0 59.4 0 90 0 C90 0.33 90 0.66 90 1 C48.42 1.495 48.42 1.495 6 2 C6.33 4.97 6.66 7.94 7 11 C4.14550355 8.14550355 2.11201404 5.4229193 0 2 C0 1.34 0 0.68 0 0 Z " fill="#7A7299" transform="translate(74,163)"/>
<path d="M0 0 C0.33 0 0.66 0 1 0 C1.33 25.74 1.66 51.48 2 78 C2.66 78.33 3.32 78.66 4 79 C3.67 80.98 3.34 82.96 3 85 C3.99 85.33 4.98 85.66 6 86 C4.68 86 3.36 86 2 86 C2 84.68 2 83.36 2 82 C1.01 81.67 0.02 81.34 -1 81 C-0.67 54.27 -0.34 27.54 0 0 Z " fill="#1E1C2B" transform="translate(60,59)"/>
<path d="M0 0 C0.33 0.66 0.66 1.32 1 2 C0.06553465 4.03144641 -0.93224776 6.03533587 -2 8 C-2.66 8 -3.32 8 -4 8 C-3.67 8.99 -3.34 9.98 -3 11 C-4.36328125 13.05078125 -4.36328125 13.05078125 -6.3125 15.3125 C-9.17472386 18.79941558 -10.81883125 21.59746192 -12 26 C-12.66 26.66 -13.32 27.32 -14 28 C-14 28.66 -14 29.32 -14 30 C-17.46153846 33 -17.46153846 33 -20 33 C-18.59140604 29.16285585 -16.8006381 25.86139574 -14.62890625 22.40234375 C-13.97212891 21.35369141 -13.31535156 20.30503906 -12.63867188 19.22460938 C-11.6109668 17.59749023 -11.6109668 17.59749023 -10.5625 15.9375 C-9.5405957 14.30458008 -9.5405957 14.30458008 -8.49804688 12.63867188 C-2.98594334 3.86573529 -2.98594334 3.86573529 0 0 Z " fill="#201B31" transform="translate(353,94)"/>
<path d="M0 0 C17.82 0 35.64 0 54 0 C54 0.33 54 0.66 54 1 C37.17 1 20.34 1 3 1 C2.0699111 3.7902667 1.81301231 5.76529542 1.68359375 8.66796875 C1.64169922 9.56064453 1.59980469 10.45332031 1.55664062 11.37304688 C1.51732422 12.30181641 1.47800781 13.23058594 1.4375 14.1875 C1.39431641 15.12787109 1.35113281 16.06824219 1.30664062 17.03710938 C1.20061335 19.35792854 1.09854971 21.67885325 1 24 C0.67 24 0.34 24 0 24 C0 16.08 0 8.16 0 0 Z " fill="#867CAE" transform="translate(226,60)"/>
<path d="M0 0 C1.29567565 2.5913513 1.34250494 4.12295849 1 7 C-0.875 9.3125 -0.875 9.3125 -3 11 C-3.66 11 -4.32 11 -5 11 C-4.67 11.99 -4.34 12.98 -4 14 C-4.62777344 14.07476562 -5.25554687 14.14953125 -5.90234375 14.2265625 C-8.17888439 14.78950562 -8.17888439 14.78950562 -8.94140625 16.9609375 C-9.14636719 17.75757813 -9.35132813 18.55421875 -9.5625 19.375 C-10.44912357 22.75628493 -11.20923384 24.79863229 -14 27 C-14.66 27 -15.32 27 -16 27 C-16 28.65 -16 30.3 -16 32 C-16.66 31.67 -17.32 31.34 -18 31 C-17.44881506 27.11448643 -16.41705585 24.80659399 -14.0625 21.6875 C-10.67703101 17.0395332 -7.5915253 12.2586627 -4.5625 7.375 C-4.11334229 6.65143311 -3.66418457 5.92786621 -3.20141602 5.18237305 C-2.13210124 3.45626155 -1.06573017 1.72832699 0 0 Z " fill="#716993" transform="translate(211,175)"/>
<path d="M0 0 C0.93065133 2.60582371 1.14917407 3.64198224 0.0625 6.25 C-0.288125 6.8275 -0.63875 7.405 -1 8 C-1.33 8 -1.66 8 -2 8 C-2.33 9.32 -2.66 10.64 -3 12 C-3.66 12 -4.32 12 -5 12 C-5.66 13.65 -6.32 15.3 -7 17 C-7.66 17 -8.32 17 -9 17 C-9.061875 17.721875 -9.12375 18.44375 -9.1875 19.1875 C-10.24456647 22.84657625 -12.20550071 24.49211602 -15 27 C-15 23.6619071 -14.45514515 22.74790275 -12.734375 19.98046875 C-12.01701172 18.81741211 -12.01701172 18.81741211 -11.28515625 17.63085938 C-10.52525391 16.42139648 -10.52525391 16.42139648 -9.75 15.1875 C-9.25886719 14.39279297 -8.76773437 13.59808594 -8.26171875 12.77929688 C-5.58541945 8.46510241 -2.84416015 4.20529394 0 0 Z " fill="#1C182C" transform="translate(294,187)"/>
<path d="M0 0 C16.17 0 32.34 0 49 0 C49 0.33 49 0.66 49 1 C34.48 1 19.96 1 5 1 C4.34 2.65 3.68 4.3 3 6 C1.5 4.6875 1.5 4.6875 0 3 C0 2.01 0 1.02 0 0 Z " fill="#877DAE" transform="translate(10,60)"/>
<path d="M0 0 C0 0.33 0 0.66 0 1 C-12.69872368 1.14978835 -25.32106794 0.70199948 -38 0 C-38 -0.33 -38 -0.66 -38 -1 C-34.7085344 -1.17079645 -31.4168034 -1.33585347 -28.125 -1.5 C-26.74828125 -1.57154297 -26.74828125 -1.57154297 -25.34375 -1.64453125 C-7.28711088 -2.53464726 -7.28711088 -2.53464726 0 0 Z " fill="#161127" transform="translate(305,148)"/>
<path d="M0 0 C0.33 0 0.66 0 1 0 C2.33257403 11.52164009 2.33257403 11.52164009 1 17 C-0.32 17.33 -1.64 17.66 -3 18 C-3 18.99 -3 19.98 -3 21 C-2.01 21.33 -1.02 21.66 0 22 C-1.32 22 -2.64 22 -4 22 C-3.3622098 14.47407567 -1.80110167 7.32901118 0 0 Z " fill="#7A709F" transform="translate(67,122)"/>
<path d="M0 0 C-2.10320063 0.50404808 -4.20759791 1.00310508 -6.3125 1.5 C-8.07013672 1.91765625 -8.07013672 1.91765625 -9.86328125 2.34375 C-13 3 -13 3 -16 3 C-16 3.66 -16 4.32 -16 5 C-17.2375 5.04125 -18.475 5.0825 -19.75 5.125 C-20.79414062 5.15980469 -20.79414062 5.15980469 -21.859375 5.1953125 C-24.30724458 4.97196674 -25.84545329 4.14041026 -28 3 C-24.08559007 2.29921164 -20.168211 1.61668646 -16.25 0.9375 C-14.58324219 0.63875977 -14.58324219 0.63875977 -12.8828125 0.33398438 C-11.81289062 0.15029297 -10.74296875 -0.03339844 -9.640625 -0.22265625 C-8.16384277 -0.48187866 -8.16384277 -0.48187866 -6.65722656 -0.74633789 C-4.09865957 -0.99058184 -2.41709608 -0.80486291 0 0 Z " fill="#28233B" transform="translate(112,137)"/>
<path d="M0 0 C1 2 1 2 0.5 4.125 C-2.06819747 9.04737849 -5.61961108 14.20653703 -11 16 C-12.39439664 16.06665376 -13.79169875 16.08538199 -15.1875 16.0625 C-17.0746875 16.0315625 -17.0746875 16.0315625 -19 16 C-19 15.67 -19 15.34 -19 15 C-18.443125 14.97164062 -17.88625 14.94328125 -17.3125 14.9140625 C-11.66283681 14.2078546 -9.1192592 12.54597445 -5.5625 8.0625 C-3.63412666 5.41731717 -1.81581726 2.72372588 0 0 Z " fill="#28243A" transform="translate(143,118)"/>
<path d="M0 0 C1.20577254 4.82309018 0.4840323 5.59880178 -1.9375 9.75 C-2.50339844 10.73484375 -3.06929687 11.7196875 -3.65234375 12.734375 C-4.09707031 13.48203125 -4.54179687 14.2296875 -5 15 C-6.32 14.67 -7.64 14.34 -9 14 C-6.03 9.38 -3.06 4.76 0 0 Z " fill="#7A72A0" transform="translate(228,149)"/>
<path d="M0 0 C3.63 0 7.26 0 11 0 C11 0.33 11 0.66 11 1 C8.36 1 5.72 1 3 1 C2.0699111 3.7902667 1.81301231 5.76529542 1.68359375 8.66796875 C1.64169922 9.56064453 1.59980469 10.45332031 1.55664062 11.37304688 C1.51732422 12.30181641 1.47800781 13.23058594 1.4375 14.1875 C1.39431641 15.12787109 1.35113281 16.06824219 1.30664062 17.03710938 C1.20061335 19.35792854 1.09854971 21.67885325 1 24 C0.67 24 0.34 24 0 24 C0 16.08 0 8.16 0 0 Z " fill="#766E98" transform="translate(226,60)"/>
<path d="M0 0 C0.99 0.66 1.98 1.32 3 2 C1.8141763 5.37503669 0.72426311 7.64722731 -2 10 C-2.66 9.67 -3.32 9.34 -4 9 C-3.46930939 5.17902761 -2.50298434 2.93828597 0 0 Z " fill="#8277AF" transform="translate(312,151)"/>
<path d="M0 0 C0.99 0 1.98 0 3 0 C2.42655063 2.86724686 2.1385485 3.8614515 0 6 C0 6.66 0 7.32 0 8 C-3.46153846 11 -3.46153846 11 -6 11 C-4.54923295 6.88949336 -2.65754275 3.46285873 0 0 Z " fill="#1C1727" transform="translate(339,116)"/>
<path d="M0 0 C2.1519437 3.22791555 2.20086443 4.28400809 2 8 C1.01 8.495 1.01 8.495 0 9 C0 8.34 0 7.68 0 7 C-0.66 7 -1.32 7 -2 7 C-2.33 7.99 -2.66 8.98 -3 10 C-3.66 10 -4.32 10 -5 10 C-3.66511872 6.40608886 -2.03977277 3.24509304 0 0 Z " fill="#191524" transform="translate(252,254)"/>
<path d="M0 0 C0.33 0 0.66 0 1 0 C1.33 2.97 1.66 5.94 2 9 C1.01 9.33 0.02 9.66 -1 10 C-1 11.98 -1 13.96 -1 16 C-1.66 16 -2.32 16 -3 16 C-2.40984815 10.49191603 -1.43336231 5.35121931 0 0 Z " fill="#6F6790" transform="translate(73,96)"/>
<path d="M0 0 C5.61 0 11.22 0 17 0 C17 0.33 17 0.66 17 1 C16.10796875 1.02578125 15.2159375 1.0515625 14.296875 1.078125 C13.12640625 1.13484375 11.9559375 1.1915625 10.75 1.25 C9.00976562 1.31960937 9.00976562 1.31960937 7.234375 1.390625 C3.53338618 2.08791275 2.32877571 3.11785184 0 6 C-1.125 2.25 -1.125 2.25 0 0 Z " fill="#837AA7" transform="translate(82,60)"/>
<path d="M0 0 C2.77398263 3.46747828 4.95912413 7.06402511 7 11 C6.67 11.66 6.34 12.32 6 13 C0.04891304 7.24728261 0.04891304 7.24728261 -0.125 2.8125 C-0.08375 1.884375 -0.0425 0.95625 0 0 Z " fill="#1B1729" transform="translate(234,108)"/>
<path d="M0 0 C0.66 0 1.32 0 2 0 C2 0.66 2 1.32 2 2 C3.32 1.67 4.64 1.34 6 1 C6.5534764 3.07553648 7 4.84365964 7 7 C7.66 7.66 8.32 8.32 9 9 C8.01 9.33 7.02 9.66 6 10 C4.99723227 8.52270825 3.99785546 7.04311423 3 5.5625 C2.443125 4.73878906 1.88625 3.91507812 1.3125 3.06640625 C0 1 0 1 0 0 Z " fill="#7F74A2" transform="translate(232,264)"/>
<path d="M0 0 C3.63 0 7.26 0 11 0 C11 0.33 11 0.66 11 1 C9.02 1 7.04 1 5 1 C4.34 2.65 3.68 4.3 3 6 C1.5 4.6875 1.5 4.6875 0 3 C0 2.01 0 1.02 0 0 Z " fill="#8178A5" transform="translate(10,60)"/>
<path d="M0 0 C0.99 0 1.98 0 3 0 C1.8141763 3.37503669 0.72426311 5.64722731 -2 8 C-3.125 4.25 -3.125 4.25 -2 2 C-1.34 2 -0.68 2 0 2 C0 1.34 0 0.68 0 0 Z " fill="#100E19" transform="translate(222,153)"/>
<path d="M0 0 C2.3125 0.5625 2.3125 0.5625 5 2 C6.875 5.4375 6.875 5.4375 8 9 C7.67 9.99 7.34 10.98 7 12 C5.83061933 10.18924982 4.66456267 8.37635257 3.5 6.5625 C2.8503125 5.55316406 2.200625 4.54382813 1.53125 3.50390625 C0 1 0 1 0 0 Z " fill="#70688E" transform="translate(50,126)"/>
<path d="M0 0 C2.79872437 2.52788007 4.45773019 4.20411134 5 8 C3.68 8 2.36 8 1 8 C-0.35439668 5.29120665 -0.06501451 2.99066732 0 0 Z " fill="#78719B" transform="translate(184,195)"/>
<path d="M0 0 C1.0680182 2.77684731 0.96475091 4.16022313 0.3125 7.125 C-1 10 -1 10 -3.125 11.375 C-3.74375 11.58125 -4.3625 11.7875 -5 12 C-3.68938409 7.76570244 -2.05643741 3.92592596 0 0 Z " fill="#242035" transform="translate(149,106)"/>
<path d="M0 0 C0.66666667 2.66666667 1.33333333 5.33333333 2 8 C1.01 8.66 0.02 9.32 -1 10 C-2.19232613 12.05003955 -2.19232613 12.05003955 -3 14 C-4 12 -4 12 -3.22265625 9.1796875 C-2.83980469 8.08914062 -2.45695313 6.99859375 -2.0625 5.875 C-1.68222656 4.77929688 -1.30195313 3.68359375 -0.91015625 2.5546875 C-0.60980469 1.71164063 -0.30945313 0.86859375 0 0 Z " fill="#2F2A44" transform="translate(154,92)"/>
<path d="M0 0 C1 3 1 3 -0.1875 6.0625 C-1.99216457 8.9873012 -2.82880497 9.90648447 -6 11 C-4.54955729 6.89041233 -2.48889248 3.56741255 0 0 Z " fill="#211C31" transform="translate(259,243)"/>
<path d="M0 0 C0.99 0.33 1.98 0.66 3 1 C3.33 2.65 3.66 4.3 4 6 C3.01 6.66 2.02 7.32 1 8 C-0.35439668 5.29120665 -0.06501451 2.99066732 0 0 Z " fill="#8075B1" transform="translate(195,202)"/>
<path d="M0 0 C1 2 1 2 0.9375 4.375 C-0.38361077 8.07411016 -2.67803906 9.09163946 -6 11 C-4.54955729 6.89041233 -2.48889248 3.56741255 0 0 Z " fill="#231F30" transform="translate(309,163)"/>
<path d="M0 0 C0.33 0 0.66 0 1 0 C1.20086443 3.71599191 1.1519437 4.77208445 -1 8 C-3.125 9.1875 -3.125 9.1875 -5 10 C-3.66654496 6.40992874 -2.1056769 3.20429093 0 0 Z " fill="#1F1A30" transform="translate(277,214)"/>
<path d="M0 0 C0.66 0 1.32 0 2 0 C0.8141763 3.37503669 -0.27573689 5.64722731 -3 8 C-3.66 7.67 -4.32 7.34 -5 7 C-5 6.34 -5 5.68 -5 5 C-4.34 5 -3.68 5 -3 5 C-2.5359375 4.0409375 -2.5359375 4.0409375 -2.0625 3.0625 C-1 1 -1 1 0 0 Z " fill="#8378AA" transform="translate(273,217)"/>
<path d="M0 0 C0.33 0 0.66 0 1 0 C1.33 2.97 1.66 5.94 2 9 C1.01 9.495 1.01 9.495 0 10 C-0.66 10.99 -1.32 11.98 -2 13 C-1.85769192 11.58297487 -1.71099254 10.1663904 -1.5625 8.75 C-1.48128906 7.96109375 -1.40007812 7.1721875 -1.31640625 6.359375 C-1.02365007 4.17635361 -0.57935581 2.1226818 0 0 Z " fill="#746C93" transform="translate(67,122)"/>
<path d="M0 0 C3.08089673 2.77280706 4.68775452 5.06326356 6 9 C3.525 8.01 3.525 8.01 1 7 C0.67 4.69 0.34 2.38 0 0 Z " fill="#1B1629" transform="translate(160,302)"/>
<path d="M0 0 C4.67692308 1.47692308 4.67692308 1.47692308 6.3125 4.125 C6.539375 4.74375 6.76625 5.3625 7 6 C6.01 6.33 5.02 6.66 4 7 C2.02 3.535 2.02 3.535 0 0 Z " fill="#7D73A1" transform="translate(157,296)"/>
<path d="M0 0 C0.33 0 0.66 0 1 0 C1.02712066 1.43739513 1.04645067 2.87493863 1.0625 4.3125 C1.07410156 5.11300781 1.08570313 5.91351563 1.09765625 6.73828125 C1 9 1 9 0 12 C-0.66 12 -1.32 12 -2 12 C-1 3.42857143 -1 3.42857143 0 0 Z " fill="#262338" transform="translate(157,80)"/>
<path d="M0 0 C0.99 0.33 1.98 0.66 3 1 C3.33 3.97 3.66 6.94 4 10 C0.48283697 6.48283697 0.45323837 4.80432667 0 0 Z " fill="#7D74A1" transform="translate(77,164)"/>
<path d="M0 0 C0.99 0 1.98 0 3 0 C3.0825 0.78375 3.165 1.5675 3.25 2.375 C3.72806339 5.14749104 3.72806339 5.14749104 6.0625 6.3125 C6.701875 6.539375 7.34125 6.76625 8 7 C7.67 7.99 7.34 8.98 7 10 C7 9.34 7 8.68 7 8 C6.401875 7.79375 5.80375 7.5875 5.1875 7.375 C2.18981233 5.49073918 1.38638224 3.18867916 0 0 Z " fill="#7F74A0" transform="translate(45,118)"/>
<path d="M0 0 C4.42857143 5.14285714 4.42857143 5.14285714 5 9 C2 8 2 8 0.8125 6.1875 C0 4 0 4 0 0 Z " fill="#1D182F" transform="translate(184,339)"/>
<path d="M0 0 C0.6875 1.75 0.6875 1.75 1 4 C-0.3125 6.25 -0.3125 6.25 -2 8 C-2.66 8 -3.32 8 -4 8 C-2.87548273 5.0280615 -1.77706209 2.66559313 0 0 Z " fill="#766E96" transform="translate(228,149)"/>
<path d="M0 0 C1 2 1 2 0.25 4.5 C-1 7 -1 7 -4 9 C-3.46930939 5.17902761 -2.50298434 2.93828597 0 0 Z " fill="#1B1829" transform="translate(143,118)"/>
<path d="M0 0 C0.66 0 1.32 0 2 0 C2 0.66 2 1.32 2 2 C3.65 2.33 5.3 2.66 7 3 C6.67 4.65 6.34 6.3 6 8 C1.125 3.375 1.125 3.375 0 0 Z " fill="#7B729E" transform="translate(240,118)"/>
<path d="M0 0 C0.66 0.33 1.32 0.66 2 1 C2 1.66 2 2.32 2 3 C3.32 2.34 4.64 1.68 6 1 C5.67 1.99 5.34 2.98 5 4 C3.68 4 2.36 4 1 4 C0.67 4.66 0.34 5.32 0 6 C-1.125 2.25 -1.125 2.25 0 0 Z " fill="#211E2F" transform="translate(236,271)"/>
<path d="M0 0 C0.33 0 0.66 0 1 0 C1.3125 2.3125 1.3125 2.3125 1 5 C-1.5 6.8125 -1.5 6.8125 -4 8 C-2.87548273 5.0280615 -1.77706209 2.66559313 0 0 Z " fill="#1F1A2E" transform="translate(358,86)"/>
<path d="M0 0 C0.99 0.33 1.98 0.66 3 1 C3.33 3.31 3.66 5.62 4 8 C0 3.375 0 3.375 0 0 Z " fill="#867DA9" transform="translate(24,82)"/>
<path d="M0 0 C0.66 0 1.32 0 2 0 C1.34 3.3 0.68 6.6 0 10 C-0.33 10 -0.66 10 -1 10 C-1.02689216 8.52093108 -1.04634621 7.04172517 -1.0625 5.5625 C-1.07410156 4.73878906 -1.08570312 3.91507812 -1.09765625 3.06640625 C-1 1 -1 1 0 0 Z " fill="#181528" transform="translate(77,73)"/>
</svg>
