<?xml version="1.0" encoding="UTF-8"?>
<svg version="1.1" xmlns="http://www.w3.org/2000/svg" width="578" height="578">
<path d="M0 0 C190.74 0 381.48 0 578 0 C578 190.74 578 381.48 578 578 C387.26 578 196.52 578 0 578 C0 387.26 0 196.52 0 0 Z " fill="#0B0B0C" transform="translate(0,0)"/>
<path d="M0 0 C49.17 0 98.34 0 149 0 C147.62576422 3.43558946 146.42634255 6.16679581 144.56640625 9.265625 C143.84904297 10.46360718 143.84904297 10.46360718 143.1171875 11.68579102 C142.60414063 12.53197998 142.09109375 13.37816895 141.5625 14.25 C141.02753906 15.13679443 140.49257813 16.02358887 139.94140625 16.93725586 C135.68436571 23.95597616 131.26725273 30.85930446 126.77734375 37.73046875 C123.82678924 42.25004373 120.94003706 46.80868653 118.0625 51.375 C117.31528687 52.56017212 117.31528687 52.56017212 116.55297852 53.76928711 C115.03454768 56.17904003 113.51709558 58.58940626 112 61 C106.21220216 70.1965394 100.41816462 79.38662213 94.5 88.5 C85.43872815 102.46540105 76.62720376 116.5686974 67.99853516 130.80541992 C64.23881101 136.99757008 60.39493072 143.11603089 56.44921875 149.19140625 C53.20027175 154.21627831 50.04306469 159.29891925 46.875 164.375 C46.23747803 165.39634033 45.59995605 166.41768066 44.94311523 167.4699707 C42.96138785 170.64621805 40.98053668 173.82301007 39 177 C22.69221337 203.1594114 22.69221337 203.1594114 15 215 C11.22732268 213.74244089 10.83324743 212.54261272 8.8125 209.1875 C6.43714231 205.32692901 4.0334936 201.50884345 1.5 197.75 C-2.48403483 191.80102372 -6.40222181 185.81017956 -10.3125 179.8125 C-10.95928711 178.82048584 -11.60607422 177.82847168 -12.27246094 176.80639648 C-15.29359062 172.16842536 -18.30885333 167.52683763 -21.30859375 162.875 C-21.8089917 162.09922607 -22.30938965 161.32345215 -22.82495117 160.52416992 C-23.74712194 159.09296468 -24.66794805 157.66089174 -25.5871582 156.2277832 C-27.24483463 153.65370489 -28.85073506 151.17215641 -30.859375 148.85546875 C-32 147 -32 147 -31.95703125 144.6640625 C-30.70961569 141.19166491 -28.79341158 138.36852056 -26.6875 135.375 C-25.77126029 134.0379477 -24.85730149 132.69933027 -23.9453125 131.359375 C-23.46352539 130.65232422 -22.98173828 129.94527344 -22.48535156 129.21679688 C-19.93050323 125.40384112 -17.49926674 121.51407337 -15.0625 117.625 C-10.56572055 110.46094874 -6.0090768 103.33953906 -1.38891602 96.25439453 C0.94440172 92.70855346 0.94440172 92.70855346 3 89 C27.42 89 51.84 89 77 89 C66.77 86.69 56.54 84.38 46 82 C29.04507363 78.14660764 23.13512587 73.15846142 14 59 C2.75981842 40.07437801 0 22.08961961 0 0 Z " fill="#887BB7" transform="translate(325,71)"/>
<path d="M0 0 C25.08 0 50.16 0 76 0 C76 26.58022562 70.58394701 51.86469742 52 72 C48.21948911 73.81640437 44.46151275 74.59401137 40.34765625 75.33203125 C39.70297394 75.44897842 39.05829163 75.5659256 38.39407349 75.68641663 C36.28450343 76.06733524 34.17361185 76.44022891 32.0625 76.8125 C30.59476954 77.07481778 29.12707795 77.3373531 27.65942383 77.60009766 C17.51101422 79.40946711 7.35247504 81.16129847 -2.8125 82.875 C-4.0802124 83.09003174 -5.3479248 83.30506348 -6.65405273 83.52661133 C-7.82653564 83.72150146 -8.99901855 83.9163916 -10.20703125 84.1171875 C-11.2328833 84.28847168 -12.25873535 84.45975586 -13.31567383 84.63623047 C-16 85 -16 85 -20 85 C-18.1457823 75.41662221 -16.0140996 65.89795204 -13.875 56.375 C-13.67946533 55.50348297 -13.48393066 54.63196594 -13.2824707 53.73403931 C-10.49779533 41.34882502 -7.59266329 28.99948865 -4.5 16.6875 C-4.32869568 16.00492126 -4.15739136 15.32234253 -3.980896 14.61907959 C-1.23375838 3.70127513 -1.23375838 3.70127513 0 0 Z " fill="#887CB7" transform="translate(182,71)"/>
<path d="M0 0 C0 46.86 0 93.72 0 142 C-0.66 142 -1.32 142 -2 142 C-3.44570149 139.81769374 -4.76598427 137.64431684 -6.0625 135.375 C-6.88236478 133.97553592 -7.70401857 132.57711858 -8.52734375 131.1796875 C-9.15165283 130.11766113 -9.15165283 130.11766113 -9.78857422 129.03417969 C-14.10861419 121.78013433 -18.8386526 114.76170262 -23.48046875 107.7109375 C-30.01215617 97.77236786 -36.39657575 87.7937007 -42.44506836 77.5534668 C-46.83712283 70.16427493 -51.53500933 62.99403721 -56.26660156 55.8190918 C-61.54530046 47.78082605 -66.57448222 39.60634291 -71.52099609 31.36010742 C-72.33818115 30.00042847 -72.33818115 30.00042847 -73.171875 28.61328125 C-73.6472168 27.81704346 -74.12255859 27.02080566 -74.61230469 26.20043945 C-75.9777226 23.9568375 -75.9777226 23.9568375 -77.67675781 21.83666992 C-79 20 -79 20 -79 18 C-37.01650551 7.74081818 -37.01650551 7.74081818 -20.51391602 3.80224609 C-19.62115967 3.58906738 -18.72840332 3.37588867 -17.80859375 3.15625 C-16.98858887 2.96160156 -16.16858398 2.76695312 -15.32373047 2.56640625 C-13.79790525 2.19448836 -12.27579324 1.80692026 -10.75830078 1.40234375 C-6.93596467 0.38471459 -4.02809401 0 0 0 Z " fill="#8779B4" transform="translate(291,218)"/>
<path d="M0 0 C11.6132167 -0.2319141 23.22588091 -0.40948884 34.84094334 -0.51812172 C40.2347205 -0.57026727 45.62691132 -0.64096382 51.01977539 -0.75439453 C56.22650103 -0.86322207 61.43170337 -0.92287602 66.63947868 -0.94877243 C68.62398197 -0.96722061 70.6084037 -1.00324943 72.59225655 -1.05730057 C88.11573184 -1.46334282 88.11573184 -1.46334282 92.67007446 2.0736084 C94.49966534 4.64518004 95.76805539 7.10159108 97 10 C97.71162738 11.12911481 98.44646971 12.24435861 99.21582031 13.33496094 C101.23032743 16.4713383 103.24316591 19.60870559 105.25 22.75 C105.95640625 23.84699219 106.6628125 24.94398438 107.390625 26.07421875 C108.07125 27.13769531 108.751875 28.20117188 109.453125 29.296875 C110.36819824 30.72531738 110.36819824 30.72531738 111.30175781 32.18261719 C113.03347961 35.05554265 114.51591151 37.99328624 116 41 C104.25639468 41.23190519 92.51333559 41.40948453 80.76790524 41.51812172 C75.31360327 41.57026907 69.86086983 41.64096939 64.4074707 41.75439453 C59.14239211 41.86321492 53.87881981 41.92287466 48.61270332 41.94877243 C46.60587407 41.96722182 44.59912553 42.00325293 42.59293938 42.05730057 C26.89151798 42.46340243 26.89151798 42.46340243 22.29988098 38.91101074 C20.46641774 36.34044385 19.20777933 33.90952458 18 31 C17.33460205 29.96004883 16.6692041 28.92009766 15.98364258 27.84863281 C15.45923584 26.97561523 14.9348291 26.10259766 14.39453125 25.203125 C13.80349609 24.22472656 13.21246094 23.24632812 12.60351562 22.23828125 C12.01248047 21.25214844 11.42144531 20.26601562 10.8125 19.25 C9.61185926 17.25449657 8.41006947 15.25968396 7.20703125 13.265625 C6.65354004 12.34716797 6.10004883 11.42871094 5.52978516 10.48242188 C4.25951349 8.42111924 2.94798885 6.41459646 1.57421875 4.421875 C0 2 0 2 0 0 Z " fill="#867AB5" transform="translate(174,175)"/>
<path d="M0 0 C6.66080384 4.06199841 13.07086309 9.31146733 15.828125 16.80859375 C17.81514718 26.28193188 17.41078259 36.04351131 12.3828125 44.453125 C7.61805558 51.38916356 2.256321 54.82862217 -5.6171875 57.453125 C-8.52767531 57.62873307 -11.39268119 57.73031369 -14.3046875 57.765625 C-15.08263672 57.79462891 -15.86058594 57.82363281 -16.66210938 57.85351562 C-24.18353557 57.9350657 -30.47332632 55.18399272 -36.16796875 50.20703125 C-42.07753263 43.05502537 -45.02541485 34.3905123 -44.890625 25.23828125 C-44.04060961 16.58026736 -40.31673407 9.0138698 -33.6171875 3.453125 C-23.42620479 -3.61847816 -11.44589292 -5.36408183 0 0 Z " fill="#F6F6F6" transform="translate(131.6171875,401.546875)"/>
<path d="M0 0 C5.27242076 4.16866165 8.88149579 9.03036411 10.71484375 15.52734375 C12.0182 26.88845794 10.81337949 36.63538568 3.58984375 45.83984375 C-2.60835034 52.23254184 -8.52155282 54.74613267 -17.37792969 55.05664062 C-18.21356445 55.06759766 -19.04919922 55.07855469 -19.91015625 55.08984375 C-20.70969727 55.10466797 -21.50923828 55.11949219 -22.33300781 55.13476562 C-30.06978537 55.00065722 -36.78824489 52.02425511 -42.28515625 46.52734375 C-47.24806182 39.17982257 -49.48955937 33.75423296 -49.59765625 24.83984375 C-49.62666016 24.06189453 -49.65566406 23.28394531 -49.68554688 22.48242188 C-49.77442308 14.28530096 -46.47924079 8.15600773 -41.0625 2.1328125 C-29.59247769 -8.22802084 -12.70152042 -8.18542427 0 0 Z " fill="#F7F7F7" transform="translate(378.28515625,404.47265625)"/>
<path d="M0 0 C4.74375 -0.103125 9.4875 -0.20625 14.375 -0.3125 C15.8501709 -0.35802002 17.3253418 -0.40354004 18.84521484 -0.45043945 C29.17198553 -0.55851842 36.12124295 1.38290487 43.875 8.25 C50.18910463 15.22089093 51.74756701 22.10009825 51.4453125 31.4296875 C50.2722842 40.83449335 46.41612452 48.16436103 39 54 C29 58 29 58 0 58 C0 38.86 0 19.72 0 0 Z " fill="#F9F9F9" transform="translate(188,400)"/>
<path d="M0 0 C4.29 0 8.58 0 13 0 C15.73688591 7.73907123 17.73498222 15.5934556 19.6875 23.5625 C20.01073541 24.87052487 20.33430077 26.17846825 20.65820312 27.48632812 C21.44203901 30.65676881 22.22254936 33.82798864 23 37 C23.33 37 23.66 37 24 37 C24.23074219 35.83726562 24.46148437 34.67453125 24.69921875 33.4765625 C26.98890265 22.1626203 29.76976511 11.08076477 33 0 C36.63 0 40.26 0 44 0 C46.82456366 8.71407939 49.46584534 17.45654047 51.8125 26.3125 C52.03123779 27.13016846 52.24997559 27.94783691 52.4753418 28.7902832 C53.29574278 31.93157711 54 34.73906926 54 38 C54.66 38 55.32 38 56 38 C56.08636719 37.38898438 56.17273438 36.77796875 56.26171875 36.1484375 C57.38018417 28.86302053 58.88801768 21.69065353 60.5 14.5 C60.71358154 13.53239746 60.92716309 12.56479492 61.1472168 11.56787109 C61.35644775 10.64828613 61.56567871 9.72870117 61.78125 8.78125 C61.96751953 7.95689453 62.15378906 7.13253906 62.34570312 6.28320312 C63 4 63 4 65 0 C68.96 0 72.92 0 77 0 C76.64510374 7.33452268 75.04029611 13.88924874 73.01123047 20.89868164 C71.48891894 26.173453 70.14797431 31.45801017 68.9375 36.8125 C64.42864513 56.57135487 64.42864513 56.57135487 62 59 C59.8579034 59.15154969 57.70976538 59.22177745 55.5625 59.25 C54.38816406 59.27578125 53.21382813 59.3015625 52.00390625 59.328125 C51.01261719 59.21984375 50.02132812 59.1115625 49 59 C46.89679452 55.84519178 46.22510652 53.52726113 45.30859375 49.87109375 C45.00373047 48.67162109 44.69886719 47.47214844 44.38476562 46.23632812 C44.07216797 44.98271484 43.75957031 43.72910156 43.4375 42.4375 C42.81312835 39.95654463 42.18692058 37.47605039 41.55859375 34.99609375 C41.28329834 33.89450928 41.00800293 32.7929248 40.72436523 31.65795898 C40.10734681 29.05111109 40.10734681 29.05111109 39 27 C35.56786743 37.57772005 32.57513773 48.18154427 30 59 C25.38 59 20.76 59 16 59 C12.94883648 50.11311595 9.92954611 41.29645843 7.78125 32.140625 C6.42858615 26.70291634 4.78512418 21.3491131 3.18359375 15.98046875 C2.98620605 15.31321777 2.78881836 14.6459668 2.58544922 13.95849609 C2.02041085 12.06828016 1.43441263 10.18436867 0.84765625 8.30078125 C0 5 0 5 0 0 Z " fill="#F4F4F4" transform="translate(245,400)"/>
<path d="M0 0 C16.83 0 33.66 0 51 0 C51 26.73 51 53.46 51 81 C50.34 81 49.68 81 49 81 C47.93774414 79.61743164 47.93774414 79.61743164 46.78515625 77.66015625 C46.1355896 76.57371826 46.1355896 76.57371826 45.47290039 75.46533203 C45.00746826 74.67239746 44.54203613 73.87946289 44.0625 73.0625 C43.06447094 71.39335119 42.06442203 69.72540867 41.0625 68.05859375 C40.55203125 67.20894043 40.0415625 66.35928711 39.515625 65.48388672 C37.27553467 61.81270776 34.92383152 58.21890881 32.5625 54.625 C28.0497962 47.72620406 23.78264848 40.70117123 19.57080078 33.61547852 C15.01465045 25.97024937 10.27548482 18.4484834 5.49609375 10.94140625 C0 2.27033509 0 2.27033509 0 0 Z " fill="#877BB4" transform="translate(109,71)"/>
<path d="M0 0 C4.95 -0.0825 9.9 -0.165 15 -0.25 C17.31837891 -0.30462402 17.31837891 -0.30462402 19.68359375 -0.36035156 C27.08910553 -0.42007343 32.68645796 -0.27691558 39 4 C43.2544234 8.2544234 44.77268508 12.49953591 45.3125 18.4375 C44.78378868 24.4648091 42.9721777 28.41660426 38.4375 32.375 C36.64252034 33.81870407 35.06153423 34.96923288 33 36 C34.48380268 40.51885363 37.04119592 43.85644412 40 47.5 C42.95880408 51.14355588 45.51619732 54.48114637 47 59 C42.11534863 59.8234931 37.85905554 60.07586157 33 59 C29.22643505 55.65183693 26.66134201 51.92062279 24.02246094 47.65039062 C22.65472309 45.44267624 21.16071058 43.34345622 19.625 41.25 C19.20476562 40.63640625 18.78453125 40.0228125 18.3515625 39.390625 C16.83461043 37.58560367 16.83461043 37.58560367 13 37 C13 44.26 13 51.52 13 59 C8.71 59 4.42 59 0 59 C0 39.53 0 20.06 0 0 Z " fill="#F7F7F7" transform="translate(401,400)"/>
<path d="M0 0 C3.96 0 7.92 0 12 0 C12 7.92 12 15.84 12 24 C12.66 24 13.32 24 14 24 C14.36544922 23.17048828 14.36544922 23.17048828 14.73828125 22.32421875 C16.84619862 18.44121307 19.8062919 15.26055501 22.66015625 11.90625 C25.01237154 9.12318097 25.01237154 9.12318097 26.62109375 6.28125 C28.25478492 3.59945047 29.44502402 1.84600359 32 0 C37.11681174 -0.75294017 41.87275392 -0.53450056 47 0 C45.45555924 3.48509931 43.37524647 6.14322337 40.9375 9.0625 C40.14214844 10.02414062 39.34679687 10.98578125 38.52734375 11.9765625 C36.8381554 13.99732259 35.14279631 16.01293993 33.44140625 18.0234375 C32.63574219 18.98507812 31.83007812 19.94671875 31 20.9375 C30.2575 21.81277344 29.515 22.68804687 28.75 23.58984375 C27.04470059 25.93843691 26.35019067 27.1686712 26 30 C27.7131341 32.37598988 29.40100991 34.42279511 31.375 36.5625 C32.4853282 37.81035042 33.59469276 39.0590589 34.703125 40.30859375 C35.25935547 40.92847168 35.81558594 41.54834961 36.38867188 42.18701172 C38.69701964 44.7842527 40.9157013 47.44279585 43.125 50.125 C43.82882812 50.97320312 44.53265625 51.82140625 45.2578125 52.6953125 C46.80720104 54.74495205 47.9549366 56.66207467 49 59 C35.91412042 61.06878397 35.91412042 61.06878397 31.29150391 57.78710938 C28.08098168 54.5116969 25.6352795 50.70804849 23.20068359 46.83886719 C21.43882509 44.14055116 19.38345006 41.71490042 17.3125 39.25 C14 35.24048096 14 35.24048096 14 33 C13.34 33 12.68 33 12 33 C12 41.25 12 49.5 12 58 C8.04 58 4.08 58 0 58 C0 38.86 0 19.72 0 0 Z " fill="#F8F8F8" transform="translate(458,400)"/>
<path d="M0 0 C0.99457718 0.00212242 0.99457718 0.00212242 2.00924683 0.00428772 C4.12860613 0.00988871 6.24786009 0.02244125 8.3671875 0.03515625 C9.80338389 0.04017113 11.23958194 0.04473406 12.67578125 0.04882812 C16.19795095 0.05985843 19.72005895 0.07712366 23.2421875 0.09765625 C23.2421875 3.72765625 23.2421875 7.35765625 23.2421875 11.09765625 C20.69564453 11.17113281 20.69564453 11.17113281 18.09765625 11.24609375 C15.87498327 11.32112069 13.65232784 11.39666855 11.4296875 11.47265625 C10.31013672 11.50359375 9.19058594 11.53453125 8.03710938 11.56640625 C6.42739258 11.62441406 6.42739258 11.62441406 4.78515625 11.68359375 C3.79539795 11.71501465 2.80563965 11.74643555 1.78588867 11.77880859 C-0.99856344 11.93539058 -0.99856344 11.93539058 -3.7578125 14.09765625 C-3.4278125 16.07765625 -3.0978125 18.05765625 -2.7578125 20.09765625 C-1.5203125 20.51015625 -0.2828125 20.92265625 0.9921875 21.34765625 C1.80945313 21.62738281 2.62671875 21.90710938 3.46875 22.1953125 C5.3845979 22.81863766 7.31932968 23.38572916 9.265625 23.90625 C16.69332448 26.01107668 20.9214756 28.63756274 25.2421875 35.09765625 C26.97264196 38.55856516 26.58797824 42.30676513 26.2421875 46.09765625 C24.20720128 51.97650533 20.62256539 54.92643521 15.48535156 58.22607422 C12.35643964 59.44181383 9.63950908 59.32136237 6.2890625 59.29296875 C5.62884094 59.29013885 4.96861938 59.28730896 4.28839111 59.28439331 C2.18946853 59.2732404 0.09098008 59.24814571 -2.0078125 59.22265625 C-3.43488965 59.21262009 -4.86197352 59.20349535 -6.2890625 59.1953125 C-9.77878578 59.17331736 -13.26825673 59.13882161 -16.7578125 59.09765625 C-16.7578125 55.13765625 -16.7578125 51.17765625 -16.7578125 47.09765625 C-14.82035156 47.03707031 -12.88289062 46.97648437 -10.88671875 46.9140625 C-8.36457491 46.82967851 -5.84243993 46.74502945 -3.3203125 46.66015625 C-2.04091797 46.62083984 -0.76152344 46.58152344 0.55664062 46.54101562 C1.77158203 46.49912109 2.98652344 46.45722656 4.23828125 46.4140625 C5.92715454 46.35907593 5.92715454 46.35907593 7.65014648 46.30297852 C10.17072191 46.3854758 10.17072191 46.3854758 11.2421875 45.09765625 C11.28299533 43.09807261 11.28473106 41.09720371 11.2421875 39.09765625 C6.23185956 36.99758262 1.32260953 35.07402795 -3.9453125 33.72265625 C-9.52303807 32.11521723 -13.84090935 29.19419211 -16.92578125 24.2109375 C-18.88178288 19.24287703 -18.31617808 13.74173269 -16.6328125 8.78515625 C-12.14614785 2.35427025 -7.77597583 -0.03267217 0 0 Z " fill="#F5F5F5" transform="translate(530.7578125,399.90234375)"/>
<path d="M0 0 C4.29 0 8.58 0 13 0 C16.49593227 8.41310803 19.40395867 16.97788743 22.25 25.625 C22.71325883 27.02483322 23.17679857 28.4245735 23.640625 29.82421875 C24.76365159 33.21508246 25.88289133 36.60718137 27 40 C29.13991743 37.86008257 29.49095374 36.89667777 30.296875 34.0625 C30.53067871 33.25780273 30.76448242 32.45310547 31.00537109 31.62402344 C31.25109863 30.7580957 31.49682617 29.89216797 31.75 29 C34.58951676 19.24571762 37.72509086 9.61569068 41 0 C45.62 0 50.24 0 55 0 C52.82592054 8.26150195 50.35036932 16.40006599 47.72094727 24.52514648 C47.0627929 26.56159371 46.41108364 28.60002935 45.75976562 30.63867188 C43.43491771 37.87111728 40.96675802 45.00078776 38 52 C37.70005127 52.70987061 37.40010254 53.41974121 37.09106445 54.15112305 C36.40108054 55.77043216 35.70183043 57.38579002 35 59 C30.05 59 25.1 59 20 59 C7.90021233 27.40489441 7.90021233 27.40489441 2.64404297 11.88720703 C2.05344929 10.15661979 1.43621911 8.43518241 0.81640625 6.71484375 C0 4 0 4 0 0 Z " fill="#F5F5F5" transform="translate(28,400)"/>
<path d="M0 0 C3.1875 1.3125 3.1875 1.3125 6 3 C6.94875 3.556875 7.8975 4.11375 8.875 4.6875 C9.57625 5.120625 10.2775 5.55375 11 6 C11.763125 5.195625 12.52625 4.39125 13.3125 3.5625 C16.43832175 0.58206531 18.00228519 0.09593412 22.25 -0.3125 C27.64558297 0.13713191 30.82777219 2.10805965 34.9375 5.6875 C36.65615522 9.42810255 36.76641395 12.97284307 36 17 C34.28095248 20.06881816 32.19285833 22.40357084 29 24 C23.73326686 24.72304605 18.94529936 25.08827936 14.20703125 22.4375 C12.0227655 20.71509012 9.97616706 18.95620577 8 17 C8 17.99 8 18.98 8 20 C4.33961511 23.46252625 1.53025108 24.32917321 -3.5 24.5625 C-7.25934484 24.4293352 -9.66030003 24.05066665 -12.625 21.6875 C-15.84400427 18.04494254 -16.4526477 14.98163475 -16.42578125 10.13671875 C-15.64365115 6.21171725 -12.91214543 3.60282428 -10 1 C-6.80343006 -0.59828497 -3.47781344 -0.37053339 0 0 Z " fill="#0C0B10" transform="translate(290,485)"/>
<path d="M0 0 C5.48840916 2.44043709 9.17727338 5.8662655 11.89453125 11.30078125 C12.3878188 17.15553836 12.75197413 22.49062406 10.20703125 27.86328125 C5.45915184 32.86780279 1.44280489 35.97821092 -5.54296875 36.61328125 C-12.0160446 36.04546758 -15.93263114 33.15029523 -20.10546875 28.30078125 C-23.54016025 23.20796282 -24.06489956 18.26954792 -23.10546875 12.30078125 C-21.00982593 6.72210246 -17.3866519 3.01304491 -12.2109375 0.1484375 C-7.91438494 -1.5813434 -4.36263413 -1.44881541 0 0 Z " fill="#0F0F0F" transform="translate(123.10546875,411.69921875)"/>
<path d="M0 0 C4.4200239 2.54593377 7.05511777 5.68091089 8.75 10.5 C9.58051424 16.0343117 9.71457356 21.44584343 7.0625 26.5 C4.36338212 30.00155834 1.71083095 32.51958453 -2.25 34.5 C-7.60350081 35.16729189 -12.95486528 35.74014129 -17.81640625 33.11328125 C-22.38450531 29.23502404 -24.82960948 25.70824344 -25.62109375 19.66796875 C-25.77710876 12.66564822 -25.19212127 7.70486696 -20.25 2.5 C-14.32605487 -2.67426473 -7.10706667 -2.99808462 0 0 Z " fill="#0E0E0E" transform="translate(367.25,412.5)"/>
<path d="M0 0 C15.73469388 0 15.73469388 0 21.6328125 5.53125 C26.50253042 11.20794975 26.54499549 15.75053168 26 23 C24.22766847 28.52550417 20.55001893 31.63408238 16 35 C11.22041378 37.38979311 5.34373985 36 0 36 C0 24.12 0 12.24 0 0 Z " fill="#111112" transform="translate(200,411)"/>
<path d="M0 0 C4.29 0 8.58 0 13 0 C13 19.47 13 38.94 13 59 C8.71 59 4.42 59 0 59 C0 39.53 0 20.06 0 0 Z " fill="#F3F3F3" transform="translate(160,400)"/>
<path d="M0 0 C3.4741682 1.87693409 6.43135933 3.62794935 8.09375 7.24609375 C8.75060544 11.10604199 8.99617236 14.63510273 7.0390625 18.12890625 C4.44604473 21.30496944 2.57783585 23.09057577 -1.515625 23.51953125 C-11.03935713 23.82751264 -11.03935713 23.82751264 -14.59375 20.93359375 C-17.73800609 17.27945829 -18.36367691 14.19120899 -18.328125 9.3828125 C-17.55494404 5.46679414 -14.89980032 2.75892796 -11.90625 0.24609375 C-7.83524916 -1.11090653 -4.09673298 -1.62022431 0 0 Z " fill="#6C6397" transform="translate(317.90625,485.75390625)"/>
<path d="M0 0 C1.98 0 3.96 0 6 0 C8.64 4.95 11.28 9.9 14 15 C16.35337223 11.86217036 17.99684205 9.22270281 19.6875 5.75 C20.12449219 4.85796875 20.56148437 3.9659375 21.01171875 3.046875 C21.33785156 2.37140625 21.66398437 1.6959375 22 1 C24.31 1 26.62 1 29 1 C29 8.59 29 16.18 29 24 C27.35 24 25.7 24 24 24 C23.67 19.38 23.34 14.76 23 10 C20.69 14.62 18.38 19.24 16 24 C12 23 12 23 10.296875 20.27734375 C9.78640625 19.17519531 9.2759375 18.07304687 8.75 16.9375 C8.22921875 15.83277344 7.7084375 14.72804688 7.171875 13.58984375 C6.78515625 12.73519531 6.3984375 11.88054687 6 11 C5.67 15.29 5.34 19.58 5 24 C3.35 24 1.7 24 0 24 C0 16.08 0 8.16 0 0 Z " fill="#6E6794" transform="translate(207,485)"/>
<path d="M0 0 C2.31 0 4.62 0 7 0 C8.17407021 2.26727333 9.33939739 4.53834624 10.5 6.8125 C10.83386719 7.45509766 11.16773438 8.09769531 11.51171875 8.75976562 C13.00239084 11.69547699 14 13.66126517 14 17 C14.66 17 15.32 17 16 17 C16.11214844 16.29488281 16.22429687 15.58976562 16.33984375 14.86328125 C17.06314908 11.72610488 18.19457691 9.09872094 19.5625 6.1875 C20.01753906 5.21167969 20.47257812 4.23585938 20.94140625 3.23046875 C21.29074219 2.49441406 21.64007813 1.75835937 22 1 C24.31 1 26.62 1 29 1 C29 8.59 29 16.18 29 24 C27.68 24 26.36 24 25 24 C24.67 19.05 24.34 14.1 24 9 C21.69 13.95 19.38 18.9 17 24 C15.35 23.67 13.7 23.34 12 23 C10.19921875 20.05859375 10.19921875 20.05859375 8.6875 16.4375 C8.17574219 15.23996094 7.66398437 14.04242188 7.13671875 12.80859375 C6.76160156 11.88175781 6.38648438 10.95492188 6 10 C5.67 14.29 5.34 18.58 5 23 C3.35 23 1.7 23 0 23 C0 15.41 0 7.82 0 0 Z " fill="#6C6492" transform="translate(330,485)"/>
<path d="M0 0 C2.7225 -0.0825 5.445 -0.165 8.25 -0.25 C9.10110352 -0.28641602 9.95220703 -0.32283203 10.82910156 -0.36035156 C14.54806842 -0.41496453 16.43172531 -0.40154587 19.54296875 1.796875 C21 4 21 4 21.0625 7.5 C20 11 20 11 18.0625 13.4375 C13.70740598 15.65948675 9.79719226 15.33533771 5 15 C5 17.64 5 20.28 5 23 C3.35 23 1.7 23 0 23 C0 15.41 0 7.82 0 0 Z " fill="#6B648F" transform="translate(365,486)"/>
<path d="M0 0 C5 0 5 0 6.56152344 1.26928711 C6.98981445 1.8494458 7.41810547 2.42960449 7.859375 3.02734375 C8.57287109 3.96803711 8.57287109 3.96803711 9.30078125 4.92773438 C9.77902344 5.59095703 10.25726563 6.25417969 10.75 6.9375 C11.24371094 7.59685547 11.73742187 8.25621094 12.24609375 8.93554688 C13.50551443 10.61764984 14.75363248 12.30820248 16 14 C16.33 14.33 16.66 14.66 17 15 C17.33 10.38 17.66 5.76 18 1 C19.65 1 21.3 1 23 1 C23 8.59 23 16.18 23 24 C17 24 17 24 15.21728516 22.53125 C14.74597168 21.8609375 14.2746582 21.190625 13.7890625 20.5 C13.26699219 19.778125 12.74492187 19.05625 12.20703125 18.3125 C11.68496094 17.549375 11.16289062 16.78625 10.625 16 C10.07972656 15.236875 9.53445313 14.47375 8.97265625 13.6875 C7.63076038 11.80413737 6.31299195 9.90362587 5 8 C4.67 13.28 4.34 18.56 4 24 C2.68 24 1.36 24 0 24 C0 16.08 0 8.16 0 0 Z " fill="#706998" transform="translate(417,485)"/>
<path d="M0 0 C0.639375 0.5775 1.27875 1.155 1.9375 1.75 C1.9375 3.07 1.9375 4.39 1.9375 5.75 C1.38191406 5.59015625 0.82632813 5.4303125 0.25390625 5.265625 C-2.25585385 4.70696002 -4.55518333 4.54651252 -7.125 4.5 C-7.98222656 4.47421875 -8.83945313 4.4484375 -9.72265625 4.421875 C-12.11451687 4.56605414 -12.11451687 4.56605414 -13.84765625 6.08203125 C-15.73721126 8.67637205 -15.4441549 10.63315168 -15.0625 13.75 C-14.29858998 16.26869332 -14.29858998 16.26869332 -12.0625 17.75 C-8.94827612 18.37052506 -6.16702138 18.44952903 -3.0625 17.75 C-0.90647306 15.41250834 -0.90647306 15.41250834 -0.0625 12.75 C-2.3725 12.75 -4.6825 12.75 -7.0625 12.75 C-7.0625 11.76 -7.0625 10.77 -7.0625 9.75 C-1.1225 9.255 -1.1225 9.255 4.9375 8.75 C5.42617825 15.95800421 5.42617825 15.95800421 3.125 19.6875 C-0.88040933 23.4640288 -5.17128253 23.02989733 -10.3984375 22.9609375 C-13.77827798 22.6933255 -15.57697244 22.08018209 -18.0625 19.75 C-20.67775329 15.69184834 -21.76374748 12.55855413 -21.0625 7.75 C-16.44416959 -0.97351299 -9.15223382 -3.73560564 0 0 Z " fill="#6E6691" transform="translate(171.0625,486.25)"/>
<path d="M0 0 C1.4540625 0.0309375 1.4540625 0.0309375 2.9375 0.0625 C3.64326172 1.58230469 3.64326172 1.58230469 4.36328125 3.1328125 C4.9921429 4.48439575 5.62105166 5.83595709 6.25 7.1875 C6.7130957 8.18523437 6.7130957 8.18523437 7.18554688 9.203125 C8.63191928 12.30901943 10.10136227 15.38134712 11.66796875 18.4296875 C12.9375 21.0625 12.9375 21.0625 12.9375 23.0625 C11.2875 23.0625 9.6375 23.0625 7.9375 23.0625 C7.2775 21.4125 6.6175 19.7625 5.9375 18.0625 C3.97831032 18.12241406 2.01998471 18.21117138 0.0625 18.3125 C-1.02804688 18.35890625 -2.11859375 18.4053125 -3.2421875 18.453125 C-6.1957065 18.75096128 -6.1957065 18.75096128 -7.4453125 21.109375 C-7.64898437 21.75390625 -7.85265625 22.3984375 -8.0625 23.0625 C-9.7125 23.0625 -11.3625 23.0625 -13.0625 23.0625 C-12.41842303 18.03064871 -10.2400132 13.82741374 -8.0625 9.3125 C-7.69382813 8.53261719 -7.32515625 7.75273437 -6.9453125 6.94921875 C-3.66954477 0.07488867 -3.66954477 0.07488867 0 0 Z " fill="#716996" transform="translate(191.0625,485.9375)"/>
<path d="M0 0 C2.3125 -0.3125 2.3125 -0.3125 5 0 C6.58203125 2.0234375 6.58203125 2.0234375 8 5 C8.29181152 5.58426758 8.58362305 6.16853516 8.88427734 6.77050781 C9.84687263 8.70969977 10.77020295 10.66401423 11.6875 12.625 C12.00783203 13.29273438 12.32816406 13.96046875 12.65820312 14.6484375 C14.04566355 17.60677529 15 19.6923627 15 23 C13.35 22.67 11.7 22.34 10 22 C9.67 20.68 9.34 19.36 9 18 C6.87420987 18.05988141 4.74921587 18.14862744 2.625 18.25 C1.44164063 18.29640625 0.25828125 18.3428125 -0.9609375 18.390625 C-4.11291753 18.65648799 -4.11291753 18.65648799 -5.4140625 21.046875 C-5.60742188 21.69140625 -5.80078125 22.3359375 -6 23 C-7.65 23 -9.3 23 -11 23 C-9.44347945 17.6462535 -7.0182491 12.99849053 -4.375 8.125 C-3.95476562 7.34125 -3.53453125 6.5575 -3.1015625 5.75 C-2.0718978 3.83107943 -1.03652433 1.91522397 0 0 Z " fill="#6E6693" transform="translate(123,486)"/>
<path d="M0 0 C1.4540625 0.0309375 1.4540625 0.0309375 2.9375 0.0625 C4.23097217 2.79082386 5.52233296 5.52011369 6.8125 8.25 C7.17730469 9.01892578 7.54210937 9.78785156 7.91796875 10.58007812 C9.70665266 14.36883586 11.44552178 18.14409403 12.9375 22.0625 C10.5625 22.25 10.5625 22.25 7.9375 22.0625 C7.2775 21.0725 6.6175 20.0825 5.9375 19.0625 C3.04141601 18.69751966 3.04141601 18.69751966 -0.1875 18.875 C-1.28320312 18.90207031 -2.37890625 18.92914063 -3.5078125 18.95703125 C-4.35085938 18.99183594 -5.19390625 19.02664063 -6.0625 19.0625 C-6.7225 20.3825 -7.3825 21.7025 -8.0625 23.0625 C-9.7125 23.0625 -11.3625 23.0625 -13.0625 23.0625 C-11.51844283 18.13548339 -9.58124213 13.46605176 -7.5 8.75 C-7.02530273 7.65848633 -7.02530273 7.65848633 -6.54101562 6.54492188 C-3.70123837 0.07553548 -3.70123837 0.07553548 0 0 Z " fill="#6C6590" transform="translate(400.0625,485.9375)"/>
<path d="M0 0 C13.3107415 -0.4033558 13.3107415 -0.4033558 18 3 C19.84710505 4.84710505 19.34739293 7.42527454 19.5234375 9.89453125 C19 12 19 12 16.93359375 14.24609375 C11.62512905 17.41986292 6.04182445 16.2258626 0 16 C0 10.72 0 5.44 0 0 Z " fill="#1A1A1A" transform="translate(413,411)"/>
<path d="M0 0 C6.27 0 12.54 0 19 0 C19 1.32 19 2.64 19 4 C14.38 4 9.76 4 5 4 C5 5.65 5 7.3 5 9 C8.96 9 12.92 9 17 9 C17 10.32 17 11.64 17 13 C13.04 13 9.08 13 5 13 C5 14.98 5 16.96 5 19 C9.62 19 14.24 19 19 19 C19 20.32 19 21.64 19 23 C12.73 23 6.46 23 0 23 C0 15.41 0 7.82 0 0 Z " fill="#706896" transform="translate(241,486)"/>
<path d="M0 0 C3.4375 1.25 3.4375 1.25 6 3 C6.875 5.1875 6.875 5.1875 7 7 C5.1875 7.6875 5.1875 7.6875 3 8 C2.319375 7.2884375 2.319375 7.2884375 1.625 6.5625 C0.01692614 4.70549011 0.01692614 4.70549011 -2.9375 4.625 C-6.41355329 5.05063918 -7.78300364 5.2713891 -10 8 C-10.66300779 11.57577233 -10.65930485 14.75895557 -8.9375 18 C-5.88666625 19.57462387 -3.37599627 19.29103416 0 19 C2.83378132 18.1025173 2.83378132 18.1025173 5 17 C5.66 17.99 6.32 18.98 7 20 C4.70499568 22.53241856 2.82371404 23.85854151 -0.5703125 24.44140625 C-5.22098981 24.6378245 -8.88194517 24.67831863 -12.625 21.6875 C-15.84400427 18.04494254 -16.4526477 14.98163475 -16.42578125 10.13671875 C-15.64365115 6.21171725 -12.91214543 3.60282428 -10 1 C-6.79963835 -0.60018083 -3.48088105 -0.36164998 0 0 Z " fill="#6F6796" transform="translate(290,485)"/>
<path d="M0 0 C2.5 1.5625 2.5 1.5625 4 4 C4.55802097 7.90614682 4.58392818 10.05111671 2.5 13.4375 C-1.02558884 15.64099302 -3.95014472 15.79669284 -8 15 C-10.5 13.5 -10.5 13.5 -12 11 C-12.57277908 8.03467496 -12.39362078 6.09976365 -12 3 C-9.09039886 -0.87946819 -4.47718802 -0.80736177 0 0 Z " fill="#0D0B14" transform="translate(317,490)"/>
<path d="M0 0 C2.1875 -0.375 2.1875 -0.375 5 0 C7.70836555 2.83433604 9.8285967 5.74289505 12 9 C12.36351562 8.3503125 12.72703125 7.700625 13.1015625 7.03125 C14.61257396 4.52064635 16.08106255 2.21715071 18 0 C21.375 -0.5625 21.375 -0.5625 24 0 C22.511492 3.26125372 20.60742212 5.90509167 18.4375 8.75 C15.16322646 13.32854848 14.10351836 16.4100084 14 22 C12.68 22 11.36 22 10 22 C9.9484375 21.39414062 9.896875 20.78828125 9.84375 20.1640625 C8.89970749 13.19102123 6.32516998 9.25535129 1.6796875 4.03125 C0 2 0 2 0 0 Z " fill="#7870A1" transform="translate(443,486)"/>
<path d="M0 0 C0.99 0.495 0.99 0.495 2 1 C3.26229508 5.47540984 3.26229508 5.47540984 2 8 C1.89475195 9.79889402 1.85339628 11.60166213 1.84178162 13.40359497 C1.8319928 14.55066925 1.82220398 15.69774353 1.81211853 16.87957764 C1.80636307 18.14408752 1.8006076 19.40859741 1.79467773 20.71142578 C1.78510127 22.05160831 1.77509133 23.39178781 1.76467896 24.73196411 C1.7375987 28.37633816 1.71660607 32.02072521 1.69667697 35.66514444 C1.67483663 39.47151982 1.64743841 43.27785502 1.62062073 47.084198 C1.57066739 54.29480037 1.52573838 61.50542501 1.48259836 68.71607101 C1.43324853 76.92396836 1.37832206 85.1318254 1.32291877 93.33968377 C1.2090582 110.2264186 1.10222805 127.11319083 1 144 C0.67 144 0.34 144 0 144 C0 96.48 0 48.96 0 0 Z " fill="#04010F" transform="translate(291,216)"/>
<path d="M0 0 C2 2 2 2 2.22705078 4.33837891 C2.21657715 5.29147949 2.20610352 6.24458008 2.1953125 7.2265625 C2.18886719 8.2578125 2.18242187 9.2890625 2.17578125 10.3515625 C2.15902344 11.43179687 2.14226562 12.51203125 2.125 13.625 C2.11597656 14.71296875 2.10695313 15.8009375 2.09765625 16.921875 C2.07403409 19.61480152 2.04109556 22.30729255 2 25 C0 25 -2 25 -4 25 C-4 17.41 -4 9.82 -4 2 C-2.68 1.34 -1.36 0.68 0 0 Z " fill="#11101B" transform="translate(363,484)"/>
<path d="M0 0 C0.33 1.32 0.66 2.64 1 4 C-3.62 4 -8.24 4 -13 4 C-13 5.65 -13 7.3 -13 9 C-9.04 9 -5.08 9 -1 9 C-1 10.32 -1 11.64 -1 13 C-4.96 13 -8.92 13 -13 13 C-13 14.98 -13 16.96 -13 19 C-13.33 19 -13.66 19 -14 19 C-14 17.02 -14 15.04 -14 13 C-14.99 13 -15.98 13 -17 13 C-17 11.02 -17 9.04 -17 7 C-16.34 7 -15.68 7 -15 7 C-15 6.01 -15 5.02 -15 4 C-15.99 4.495 -15.99 4.495 -17 5 C-17 3.68 -17 2.36 -17 1 C-8.585 0.505 -8.585 0.505 0 0 Z " fill="#615A84" transform="translate(259,486)"/>
<path d="M0 0 C2.672336 3.56311466 3.77263971 5.84585747 5 10 C6.65 9.34 8.3 8.68 10 8 C13 14.625 13 14.625 13 18 C11.35 17.67 9.7 17.34 8 17 C7.67 15.68 7.34 14.36 7 13 C2.71 13 -1.58 13 -6 13 C-4.02 8.71 -2.04 4.42 0 0 Z " fill="#696190" transform="translate(125,491)"/>
<path d="M0 0 C1.65 0 3.3 0 5 0 C5 7.59 5 15.18 5 23 C3.02 23 1.04 23 -1 23 C-1 22.01 -1 21.02 -1 20 C-1.33 19.01 -1.66 18.02 -2 17 C-1.67 16.34 -1.34 15.68 -1 15 C-0.76827173 12.45384991 -0.58105471 9.92603775 -0.4375 7.375 C-0.39431641 6.66859375 -0.35113281 5.9621875 -0.30664062 5.234375 C-0.20055249 3.48981463 -0.09977111 1.74493303 0 0 Z " fill="#635B88" transform="translate(435,486)"/>
<path d="M0 0 C0.66 0 1.32 0 2 0 C2.2475 0.969375 2.495 1.93875 2.75 2.9375 C3.36875 4.4534375 3.36875 4.4534375 4 6 C6.03243548 6.96877057 6.03243548 6.96877057 8 7 C6.25 10.875 6.25 10.875 4 12 C1.69879699 12.19319801 -0.59955632 12.3171869 -2.90625 12.42578125 C-5.19535294 12.79975549 -5.19535294 12.79975549 -6.28125 15.04296875 C-6.63703125 16.01169922 -6.63703125 16.01169922 -7 17 C-8.65 17 -10.3 17 -12 17 C-10.25 11.25 -10.25 11.25 -8 9 C-6.33333333 9 -4.66666667 9 -3 9 C-2.87625 8.2575 -2.7525 7.515 -2.625 6.75 C-2.04513299 4.19858515 -1.26291261 2.2732427 0 0 Z " fill="#68608F" transform="translate(399,492)"/>
<path d="M0 0 C0.66 0 1.32 0 2 0 C2.99 2.31 3.98 4.62 5 7 C5.99 7 6.98 7 8 7 C11.08353797 10.08353797 13.22058385 12.63526953 14 17 C11.625 17.1875 11.625 17.1875 9 17 C7 14 7 14 7 11 C6.0925 11.04125 5.185 11.0825 4.25 11.125 C1.1217954 11.00468444 -0.38614006 10.6085292 -3 9 C-2.44271087 5.65626525 -1.64826111 2.96687001 0 0 Z " fill="#6A6092" transform="translate(190,492)"/>
<path d="M0 0 C0.33 0.66 0.66 1.32 1 2 C1.66 2.33 2.32 2.66 3 3 C3.33 3.99 3.66 4.98 4 6 C4.99 6 5.98 6 7 6 C7.14695312 7.08667969 7.14695312 7.08667969 7.296875 8.1953125 C8.28658206 14.59428057 9.3107271 19.3107271 14 24 C14.04063832 25.66617115 14.042721 27.33388095 14 29 C10.40290764 24.70228632 7.35507604 20.13233588 4.3125 15.4375 C3.81427734 14.68275391 3.31605469 13.92800781 2.80273438 13.15039062 C2.32771484 12.41884766 1.85269531 11.68730469 1.36328125 10.93359375 C0.93313721 10.27415771 0.50299316 9.61472168 0.05981445 8.93530273 C-1.05761429 6.89479187 -1.72912039 5.31396943 -2 3 C-1.34 2.01 -0.68 1.02 0 0 Z " fill="#8378AB" transform="translate(295,212)"/>
<path d="M0 0 C2.4993415 3.33245533 4.3518139 6.20917197 6 10 C5.67 10.66 5.34 11.32 5 12 C4.67 11.01 4.34 10.02 4 9 C3.34 9 2.68 9 2 9 C1.67 11.31 1.34 13.62 1 16 C-1.64 16 -4.28 16 -7 16 C-7.33 15.01 -7.66 14.02 -8 13 C-8.66 13 -9.32 13 -10 13 C-10.598125 13.639375 -11.19625 14.27875 -11.8125 14.9375 C-14.39597564 17.37334846 -15.48802781 17.76054735 -19 18 C-21.69699509 17.77901716 -24.32097719 17.4086645 -27 17 C-27 16.67 -27 16.34 -27 16 C-25.89591797 15.96132813 -25.89591797 15.96132813 -24.76953125 15.921875 C-17.04445068 15.52310014 -17.04445068 15.52310014 -11 11 C-9.30604021 9.02048699 -7.65007277 7.0167556 -6 5 C-5.67 5 -5.34 5 -5 5 C-5 8.3 -5 11.6 -5 15 C-3.35 15 -1.7 15 0 15 C0 10.05 0 5.1 0 0 Z M-7 11 C-6 13 -6 13 -6 13 Z " fill="#0C0914" transform="translate(335,493)"/>
<path d="M0 0 C1.125 1.75 1.125 1.75 2 4 C1.125 6.0625 1.125 6.0625 0 8 C0 8.99 0 9.98 0 11 C0.45375 10.505 0.9075 10.01 1.375 9.5 C3 8 3 8 5 8 C5.33 7.34 5.66 6.68 6 6 C6 6.66 6 7.32 6 8 C8.31 8 10.62 8 13 8 C12.42655063 10.86724686 12.1385485 11.8614515 10 14 C6.94242108 14.56075289 4.06108317 14.52739799 1 14 C-2.13305927 11.40185329 -2.87557382 9.88875841 -3.4375 5.875 C-2.96547258 2.7731055 -2.46468444 1.84851333 0 0 Z " fill="#100E1B" transform="translate(158,491)"/>
<path d="M0 0 C0.66 0.33 1.32 0.66 2 1 C2.625 3.0625 2.625 3.0625 3 5 C4.134375 5.28875 5.26875 5.5775 6.4375 5.875 C7.613125 6.24625 8.78875 6.6175 10 7 C11.38226016 9.76452033 11.09525387 12.0461363 11.0625 15.125 C11.05347656 16.22070312 11.04445312 17.31640625 11.03515625 18.4453125 C11.02355469 19.28835937 11.01195312 20.13140625 11 21 C7.32231703 17.65971913 4.85596568 13.92633588 2.25 9.75 C1.63318359 8.77546875 1.63318359 8.77546875 1.00390625 7.78125 C-0.00205086 6.1904341 -1.00167362 4.59561567 -2 3 C-1.34 2.67 -0.68 2.34 0 2 C0 1.34 0 0.68 0 0 Z " fill="#8175A7" transform="translate(148,130)"/>
<path d="M0 0 C1.60488281 0.01450195 1.60488281 0.01450195 3.2421875 0.02929688 C4.35335937 0.05443359 5.46453125 0.07957031 6.609375 0.10546875 C8.29933594 0.12577148 8.29933594 0.12577148 10.0234375 0.14648438 C12.80256764 0.1818123 15.58072863 0.23114355 18.359375 0.29296875 C18.359375 0.62296875 18.359375 0.95296875 18.359375 1.29296875 C8.954375 1.78796875 8.954375 1.78796875 -0.640625 2.29296875 C-0.640625 3.94296875 -0.640625 5.59296875 -0.640625 7.29296875 C-1.630625 7.62296875 -2.620625 7.95296875 -3.640625 8.29296875 C-3.640625 9.28296875 -3.640625 10.27296875 -3.640625 11.29296875 C-6.078125 10.66796875 -6.078125 10.66796875 -8.640625 9.29296875 C-9.453125 6.16796875 -9.453125 6.16796875 -9.640625 3.29296875 C-6.3962604 0.37505992 -4.32206494 -0.06896912 0 0 Z " fill="#282829" transform="translate(535.640625,410.70703125)"/>
<path d="M0 0 C1.32 0 2.64 0 4 0 C4 6.6 4 13.2 4 20 C2.68 20 1.36 20 0 20 C-0.19594676 16.85463232 -0.3803401 13.70869386 -0.5625 10.5625 C-0.61857422 9.66466797 -0.67464844 8.76683594 -0.73242188 7.84179688 C-0.78076172 6.98779297 -0.82910156 6.13378906 -0.87890625 5.25390625 C-0.9260376 4.46314697 -0.97316895 3.6723877 -1.02172852 2.85766602 C-1 1 -1 1 0 0 Z " fill="#746B9C" transform="translate(231,488)"/>
<path d="M0 0 C1.98 0 3.96 0 6 0 C6 0.33 6 0.66 6 1 C4.35 1 2.7 1 1 1 C1 7.93 1 14.86 1 22 C1.66 22 2.32 22 3 22 C3.19421438 19.04196565 3.38066186 16.08379837 3.5625 13.125 C3.61857422 12.28324219 3.67464844 11.44148438 3.73242188 10.57421875 C3.78076172 9.76855469 3.82910156 8.96289062 3.87890625 8.1328125 C3.9260376 7.38918457 3.97316895 6.64555664 4.02172852 5.87939453 C4.13578275 3.90752923 4.13578275 3.90752923 3 2 C3.99 2 4.98 2 6 2 C9.07692308 7.41538462 9.07692308 7.41538462 8.6875 10.375 C8.460625 10.91125 8.23375 11.4475 8 12 C7.34 11.67 6.68 11.34 6 11 C5.67 15.29 5.34 19.58 5 24 C3.35 24 1.7 24 0 24 C0 16.08 0 8.16 0 0 Z " fill="#5F5880" transform="translate(207,485)"/>
<path d="M0 0 C4.62 0 9.24 0 14 0 C12 2 12 2 9.8359375 2.1953125 C8.61777344 2.16050781 8.61777344 2.16050781 7.375 2.125 C6.55773437 2.10695313 5.74046875 2.08890625 4.8984375 2.0703125 C4.27195312 2.04710937 3.64546875 2.02390625 3 2 C3 4.31 3 6.62 3 9 C5.31 9 7.62 9 10 9 C10 9.33 10 9.66 10 10 C8.02 10 6.04 10 4 10 C3.67 13.3 3.34 16.6 3 20 C2.01 19.67 1.02 19.34 0 19 C-0.2396943 13.36718401 0.61470179 8.45461169 2 3 C1.34 3 0.68 3 0 3 C0 2.01 0 1.02 0 0 Z " fill="#746BA1" transform="translate(366,488)"/>
<path d="M0 0 C5.94 0 11.88 0 18 0 C18 0.33 18 0.66 18 1 C15.9174133 1.19561869 13.83388144 1.38119313 11.75 1.5625 C10.00976562 1.71912109 10.00976562 1.71912109 8.234375 1.87890625 C5.48128523 1.98198087 3.580018 1.86213473 1 1 C1.33 1.99 1.66 2.98 2 4 C2.66 3.67 3.32 3.34 4 3 C4 4.98 4 6.96 4 9 C3.67 8.34 3.34 7.68 3 7 C2.34 7 1.68 7 1 7 C1.33 11.62 1.66 16.24 2 21 C7.61 21.33 13.22 21.66 19 22 C19 22.33 19 22.66 19 23 C12.73 23 6.46 23 0 23 C0 15.41 0 7.82 0 0 Z " fill="#6C648A" transform="translate(241,486)"/>
<path d="M0 0 C1.98 0 3.96 0 6 0 C6.33 0.99 6.66 1.98 7 3 C6.34 3 5.68 3 5 3 C4.67 2.67 4.34 2.34 4 2 C3.93941406 3.20398438 3.87882813 4.40796875 3.81640625 5.6484375 C3.73200268 7.22397077 3.64735459 8.79949096 3.5625 10.375 C3.52318359 11.1690625 3.48386719 11.963125 3.44335938 12.78125 C3.11328125 18.7734375 3.11328125 18.7734375 2 21 C1.34 21 0.68 21 0 21 C0 14.07 0 7.14 0 0 Z " fill="#7469A2" transform="translate(208,486)"/>
<path d="M0 0 C3.3 0 6.6 0 10 0 C10.38218767 1.65614657 10.71395102 3.32457024 11 5 C10 6 10 6 7.71484375 6.09765625 C6.34005859 6.08025391 6.34005859 6.08025391 4.9375 6.0625 C4.01839844 6.05347656 3.09929687 6.04445313 2.15234375 6.03515625 C1.44207031 6.02355469 0.73179687 6.01195312 0 6 C0 4.02 0 2.04 0 0 Z " fill="#090811" transform="translate(370,490)"/>
<path d="M0 0 C2.31 0 4.62 0 7 0 C7 7.59 7 15.18 7 23 C5.35 23 3.7 23 2 23 C3.32 22.67 4.64 22.34 6 22 C6 15.4 6 8.8 6 2 C4.68 2.33 3.36 2.66 2 3 C1.34 5.97 0.68 8.94 0 12 C-0.33 12 -0.66 12 -1 12 C-2.42857143 3.42857143 -2.42857143 3.42857143 0 0 Z " fill="#60597C" transform="translate(229,486)"/>
<path d="M0 0 C0.33 1.32 0.66 2.64 1 4 C-3.62 4 -8.24 4 -13 4 C-13 5.65 -13 7.3 -13 9 C-13.33 9 -13.66 9 -14 9 C-14.33 7.35 -14.66 5.7 -15 4 C-15.99 4.495 -15.99 4.495 -17 5 C-17 3.68 -17 2.36 -17 1 C-8.585 0.505 -8.585 0.505 0 0 Z " fill="#5F5583" transform="translate(259,486)"/>
<path d="M0 0 C1.02879148 2.67485785 0.9802834 4.09266804 0.375 6.9375 C-1.22180504 10.49402032 -3.04705653 12.4791946 -6 15 C-6.99 15.33 -7.98 15.66 -9 16 C-9.73323796 18.01508358 -9.73323796 18.01508358 -10 20 C-10.99 20 -11.98 20 -13 20 C-12.31292969 18.97519531 -11.62585938 17.95039063 -10.91796875 16.89453125 C-10.00775046 15.53389567 -9.09759767 14.17321627 -8.1875 12.8125 C-7.73568359 12.13896484 -7.28386719 11.46542969 -6.81835938 10.77148438 C-4.45229248 7.23101931 -2.14973234 3.67811346 0 0 Z " fill="#120F1D" transform="translate(422,154)"/>
<path d="M0 0 C-1.72154788 3.76488042 -3.99234114 6.15063897 -7 9 C-7 6.36 -7 3.72 -7 1 C-12.35962892 1.29328332 -12.35962892 1.29328332 -16.4375 4.5625 C-16.953125 5.366875 -17.46875 6.17125 -18 7 C-18.66 6.67 -19.32 6.34 -20 6 C-15.7079654 -2.24070644 -8.15548532 -0.55395749 0 0 Z " fill="#E6E6E6" transform="translate(505,400)"/>
<path d="M0 0 C1.0625 1.8125 1.0625 1.8125 2 4 C1.67 4.99 1.34 5.98 1 7 C1.66 7 2.32 7 3 7 C3.33 5.35 3.66 3.7 4 2 C4.33 2 4.66 2 5 2 C5.66 4.64 6.32 7.28 7 10 C9.64 10.66 12.28 11.32 15 12 C11.51131349 14.32579101 10.10281481 14.41865457 6 14 C3.04348926 12.27536874 1.93024206 10.8953631 0 8 C-0.25760279 5.30547479 -0.08900053 2.71451625 0 0 Z " fill="#655E8A" transform="translate(300,493)"/>
<path d="M0 0 C0.33 0 0.66 0 1 0 C1 1.98 1 3.96 1 6 C4.3 6 7.6 6 11 6 C10.67 6.66 10.34 7.32 10 8 C11.32 8.33 12.64 8.66 14 9 C10.68629 11.20914 9.6553979 11.22481553 5.8125 11.125 C4.91144531 11.10695313 4.01039063 11.08890625 3.08203125 11.0703125 C2.39496094 11.04710937 1.70789063 11.02390625 1 11 C-0.04702186 7.2735915 -0.07442057 3.86986958 0 0 Z " fill="#5E5883" transform="translate(369,490)"/>
<path d="M0 0 C0.886875 0.165 1.77375 0.33 2.6875 0.5 C1.03156255 4.08786447 -0.94087691 7.33783588 -3.3125 10.5 C-4.3025 10.5 -5.2925 10.5 -6.3125 10.5 C-6.9725 9.84 -7.6325 9.18 -8.3125 8.5 C-4.35626368 0.65754923 -4.35626368 0.65754923 0 0 Z " fill="#6E668F" transform="translate(464.3125,485.5)"/>
<path d="M0 0 C0.94875 0.350625 1.8975 0.70125 2.875 1.0625 C2.625 4.4375 2.625 4.4375 1.875 8.0625 C0 9.5625 0 9.5625 -2.125 10.0625 C-3.115 9.7325 -4.105 9.4025 -5.125 9.0625 C-4.465 8.0725 -3.805 7.0825 -3.125 6.0625 C-3.125 4.7425 -3.125 3.4225 -3.125 2.0625 C-3.785 1.4025 -4.445 0.7425 -5.125 0.0625 C-3.125 -0.9375 -3.125 -0.9375 0 0 Z " fill="#6E669B" transform="translate(383.125,488.9375)"/>
<path d="M0 0 C5.53771745 -0.28643366 9.24803827 -0.24524216 14 3 C14.875 5.1875 14.875 5.1875 15 7 C13.68 7.33 12.36 7.66 11 8 C10.649375 7.360625 10.29875 6.72125 9.9375 6.0625 C7.22815794 3.17836168 4.84141089 3.2899178 1 3 C0.67 2.01 0.34 1.02 0 0 Z " fill="#676089" transform="translate(282,485)"/>
<path d="M0 0 C0 2.64 0 5.28 0 8 C-3 7 -3 7 -5 5 C-7.32275177 4.59952556 -9.65739357 4.2602896 -12 4 C-12 3.01 -12 2.02 -12 1 C-7.95858806 0.36605303 -4.0934693 -0.12404452 0 0 Z " fill="#605A82" transform="translate(176,495)"/>
<path d="M0 0 C0.33 0 0.66 0 1 0 C1 5.28 1 10.56 1 16 C0.67 16 0.34 16 0 16 C-0.33 14.02 -0.66 12.04 -1 10 C-1.680625 10.99 -1.680625 10.99 -2.375 12 C-2.91125 12.66 -3.4475 13.32 -4 14 C-4.66 14 -5.32 14 -6 14 C-4.50829734 9.0276578 -2.39542583 4.58154261 0 0 Z " fill="#1C172C" transform="translate(354,493)"/>
<path d="M0 0 C2.125 0.375 2.125 0.375 4 1 C3.01 3.31 2.02 5.62 1 8 C0.34 8 -0.32 8 -1 8 C-1.33 7.34 -1.66 6.68 -2 6 C-4.12364481 5.77390663 -4.12364481 5.77390663 -5.625 7.5 C-6.07875 7.995 -6.5325 8.49 -7 9 C-7.33 8.01 -7.66 7.02 -8 6 C-6.71034824 4.62437146 -5.37310707 3.29233607 -4 2 C-3.34 2 -2.68 2 -2 2 C-1.34 1.34 -0.68 0.68 0 0 Z " fill="#100E1B" transform="translate(390,493)"/>
<path d="M0 0 C2.97 0.495 2.97 0.495 6 1 C5.690625 1.763125 5.38125 2.52625 5.0625 3.3125 C4.32106407 5.18789677 3.63771783 7.08684652 3 9 C1.0625 10.25 1.0625 10.25 -1 11 C-1.66 10.67 -2.32 10.34 -3 10 C-3 8.35 -3 6.7 -3 5 C-2.01 5 -1.02 5 0 5 C0 3.35 0 1.7 0 0 Z " fill="#0A0B0A" transform="translate(310,490)"/>
<path d="M0 0 C2.1875 -0.375 2.1875 -0.375 5 0 C6.99022836 1.83961648 8.38989899 3.79186148 10 6 C9.67 6.66 9.34 7.32 9 8 C8.34 8 7.68 8 7 8 C6.67 8.66 6.34 9.32 6 10 C4.99421411 8.71283353 3.99553202 7.42011342 3 6.125 C2.443125 5.40570313 1.88625 4.68640625 1.3125 3.9453125 C0 2 0 2 0 0 Z " fill="#6E6894" transform="translate(443,486)"/>
<path d="M0 0 C0.78117187 0.99773437 0.78117187 0.99773437 1.578125 2.015625 C3.89646013 4.3144384 3.89646013 4.3144384 7.234375 4.171875 C8.97460938 3.96304687 8.97460938 3.96304687 10.75 3.75 C11.92046875 3.62109375 13.0909375 3.4921875 14.296875 3.359375 C15.63492187 3.18148438 15.63492187 3.18148438 17 3 C17.33 3.99 17.66 4.98 18 6 C16.21066124 7.78933876 13.6698379 7.25643059 11.25 7.3125 C7.18930652 7.28349505 5.34983183 7.19509852 1.75 5.1875 C0 3 0 3 0 0 Z " fill="#756B9F" transform="translate(302,502)"/>
<path d="M0 0 C0.66 0 1.32 0 2 0 C3.32 3.3 4.64 6.6 6 10 C4.35 10 2.7 10 1 10 C0.34 9.01 -0.32 8.02 -1 7 C-1.99 6.34 -2.98 5.68 -4 5 C-3.525625 4.54625 -3.05125 4.0925 -2.5625 3.625 C-0.90972192 2.06741796 -0.90972192 2.06741796 0 0 Z " fill="#706997" transform="translate(407,498)"/>
<path d="M0 0 C2.4375 1.5 2.4375 1.5 4 3 C3.07767578 3.16435547 3.07767578 3.16435547 2.13671875 3.33203125 C1.32847656 3.49058594 0.52023437 3.64914062 -0.3125 3.8125 C-1.51326172 4.03873047 -1.51326172 4.03873047 -2.73828125 4.26953125 C-5.25430815 5.08213407 -6.22594766 6.10108767 -8 8 C-8.66 8 -9.32 8 -10 8 C-10.21917317 5.29686424 -10.32851983 3.56041618 -8.9375 1.1875 C-5.89729821 -0.67584949 -3.48171989 -0.36649683 0 0 Z " fill="#7971A4" transform="translate(287,486)"/>
<path d="M0 0 C0.99 0 1.98 0 3 0 C3 0.66 3 1.32 3 2 C3.66 2 4.32 2 5 2 C5.61875 3.670625 5.61875 3.670625 6.25 5.375 C7.44409042 8.37069755 7.44409042 8.37069755 10.125 10.0625 C10.74375 10.371875 11.3625 10.68125 12 11 C12.75 14.125 12.75 14.125 13 17 C12.01 17 11.02 17 10 17 C8.74145508 15.54711914 8.74145508 15.54711914 7.51953125 13.53515625 C7.07802734 12.81779297 6.63652344 12.10042969 6.18164062 11.36132812 C5.72982422 10.60271484 5.27800781 9.84410156 4.8125 9.0625 C4.34908203 8.30775391 3.88566406 7.55300781 3.40820312 6.77539062 C0 1.1787095 0 1.1787095 0 0 Z " fill="#8579A5" transform="translate(258,310)"/>
<path d="M0 0 C2.64 0 5.28 0 8 0 C7.01 0.495 7.01 0.495 6 1 C6.66 4.3 7.32 7.6 8 11 C8.66 11 9.32 11 10 11 C9.67 11.99 9.34 12.98 9 14 C5.25876024 9.7045025 2.65848126 5.00099548 0 0 Z " fill="#8078A3" transform="translate(174,176)"/>
<path d="M0 0 C0.99 0 1.98 0 3 0 C4.00496852 3.01490557 4.10335303 5.04181692 4.0625 8.1875 C4.05347656 9.08855469 4.04445313 9.98960937 4.03515625 10.91796875 C4.02355469 11.60503906 4.01195312 12.29210937 4 13 C3.01 12.67 2.02 12.34 1 12 C0.67 12.99 0.34 13.98 0 15 C-0.66 13.68 -1.32 12.36 -2 11 C0 9 0 9 2 8 C1.67 6.68 1.34 5.36 1 4 C0.01 4.99 -0.98 5.98 -2 7 C-2 5.35 -2 3.7 -2 2 C-1.34 2 -0.68 2 0 2 C0 1.34 0 0.68 0 0 Z " fill="#110F1A" transform="translate(297,490)"/>
<path d="M0 0 C0.33 0 0.66 0 1 0 C1.29503183 3.1032978 1.24497413 4.61747354 -0.4609375 7.28125 C-1.09257812 8.0134375 -1.72421875 8.745625 -2.375 9.5 C-4.99451982 12.56149641 -6.66949035 15.18318443 -8 19 C-8.66 18.01 -9.32 17.02 -10 16 C-8.35993936 13.3297416 -6.71201438 10.66442704 -5.0625 8 C-4.59392578 7.236875 -4.12535156 6.47375 -3.64257812 5.6875 C-3.19462891 4.965625 -2.74667969 4.24375 -2.28515625 3.5 C-1.87144775 2.8296875 -1.45773926 2.159375 -1.03149414 1.46875 C-0.69110107 0.9840625 -0.35070801 0.499375 0 0 Z " fill="#130F20" transform="translate(355,261)"/>
<path d="M0 0 C0.66 0.33 1.32 0.66 2 1 C1.67 2.98 1.34 4.96 1 7 C0.34 7 -0.32 7 -1 7 C-1 9.31 -1 11.62 -1 14 C-2.5 13 -2.5 13 -4 11 C-4.49753177 8.25499711 -4.54227359 5.73990866 -4 3 C-2 1 -2 1 0 0 Z " fill="#0D0C1A" transform="translate(309,490)"/>
<path d="M0 0 C2.8203125 -0.29296875 2.8203125 -0.29296875 6.125 -0.1875 C7.76855469 -0.14689453 7.76855469 -0.14689453 9.4453125 -0.10546875 C10.28835937 -0.07066406 11.13140625 -0.03585937 12 0 C12 0.33 12 0.66 12 1 C10.02 1 8.04 1 6 1 C5.67 1.99 5.34 2.98 5 4 C4.34 4 3.68 4 3 4 C3 4.66 3 5.32 3 6 C1.0625 5.625 1.0625 5.625 -1 5 C-1.33 4.34 -1.66 3.68 -2 3 C-1.34 2.01 -0.68 1.02 0 0 Z " fill="#100E17" transform="translate(185,504)"/>
<path d="M0 0 C0.33 0 0.66 0 1 0 C1.57293869 9.73995772 1.57293869 9.73995772 -2 14 C-2.66 14 -3.32 14 -4 14 C-3.66328485 8.67061191 -3.384568 4.37173367 0 0 Z " fill="#756B9B" transform="translate(227,491)"/>
<path d="M0 0 C0.66 0 1.32 0 2 0 C5 5.75 5 5.75 5 8 C2.36 8 -0.28 8 -3 8 C-1.125 2.25 -1.125 2.25 0 0 Z " fill="#12101C" transform="translate(399,492)"/>
<path d="M0 0 C2.50298434 2.93828597 3.46930939 5.17902761 4 9 C1.69 9 -0.62 9 -3 9 C-2.44271087 5.65626525 -1.64826111 2.96687001 0 0 Z " fill="#12101E" transform="translate(125,491)"/>
<path d="M0 0 C2.4993415 3.33245533 4.3518139 6.20917197 6 10 C5.67 10.66 5.34 11.32 5 12 C4.67 11.01 4.34 10.02 4 9 C3.34 9 2.68 9 2 9 C1.67 11.31 1.34 13.62 1 16 C-0.65 16 -2.3 16 -4 16 C-2.68 15.67 -1.36 15.34 0 15 C0 10.05 0 5.1 0 0 Z " fill="#1B172E" transform="translate(335,493)"/>
<path d="M0 0 C0.66 0 1.32 0 2 0 C2.99 2.64 3.98 5.28 5 8 C2.36 8 -0.28 8 -3 8 C-1.125 2.25 -1.125 2.25 0 0 Z " fill="#0F0C1D" transform="translate(190,492)"/>
<path d="M0 0 C2.10544013 0.28232721 4.20933589 0.5761898 6.3125 0.875 C7.48425781 1.03742188 8.65601563 1.19984375 9.86328125 1.3671875 C13 2 13 2 16 4 C13.89590361 4.02701408 11.79170822 4.04640223 9.6875 4.0625 C8.51574219 4.07410156 7.34398437 4.08570313 6.13671875 4.09765625 C3 4 3 4 0 3 C0 2.01 0 1.02 0 0 Z " fill="#15102A" transform="translate(389,157)"/>
<path d="M0 0 C0.66 0.33 1.32 0.66 2 1 C1.49396008 3.16874252 1.00016187 4.99967627 0 7 C-0.66 7 -1.32 7 -2 7 C-2.268125 7.5775 -2.53625 8.155 -2.8125 8.75 C-4.01719859 11.0325868 -5.40798115 12.9737942 -7 15 C-7.33 14.34 -7.66 13.68 -8 13 C-6.75506252 10.71025684 -5.47358472 8.55809966 -4.0625 6.375 C-3.67642578 5.76398438 -3.29035156 5.15296875 -2.89257812 4.5234375 C-1.93553674 3.0110758 -0.96867189 1.50493883 0 0 Z " fill="#120E1E" transform="translate(373,232)"/>
<path d="M0 0 C3.96 0 7.92 0 12 0 C12 0.99 12 1.98 12 3 C8.37 3 4.74 3 1 3 C0.67 2.01 0.34 1.02 0 0 Z " fill="#6B6390" transform="translate(246,496)"/>
<path d="M0 0 C1.1446875 0.1546875 1.1446875 0.1546875 2.3125 0.3125 C1.3225 0.8075 1.3225 0.8075 0.3125 1.3125 C0.9725 2.9625 1.6325 4.6125 2.3125 6.3125 C0.6625 5.9825 -0.9875 5.6525 -2.6875 5.3125 C-4.0075 6.9625 -5.3275 8.6125 -6.6875 10.3125 C-6.0259761 5.68183269 -5.25613325 0.61117828 0 0 Z " fill="#756E9A" transform="translate(125.6875,485.6875)"/>
<path d="M0 0 C5 2 5 2 7 3 C6.01 3.66 5.02 4.32 4 5 C3.67 4.67 3.34 4.34 3 4 C2.67 8.95 2.34 13.9 2 19 C1.67 19 1.34 19 1 19 C0.67 12.73 0.34 6.46 0 0 Z " fill="#776EA8" transform="translate(419,489)"/>
<path d="M0 0 C0.99 0.33 1.98 0.66 3 1 C4 4 4 4 3.0625 6.1875 C2.5365625 7.0846875 2.5365625 7.0846875 2 8 C0.35 8 -1.3 8 -3 8 C-1.125 2.25 -1.125 2.25 0 0 Z " fill="#69638A" transform="translate(115,501)"/>
<path d="M0 0 C2.00720923 0.28674418 4.0085944 0.61866701 6 1 C6 1.33 6 1.66 6 2 C4.35 2 2.7 2 1 2 C2.65 4.64 4.3 7.28 6 10 C5.01 10.33 4.02 10.66 3 11 C2.34 10.01 1.68 9.02 1 8 C0.34 7.67 -0.32 7.34 -1 7 C-1.04254356 5.00045254 -1.04080783 2.99958364 -1 1 C-0.67 0.67 -0.34 0.34 0 0 Z " fill="#12101C" transform="translate(442,484)"/>
<path d="M0 0 C1.98 0 3.96 0 6 0 C6 7.26 6 14.52 6 22 C3.83242636 17.66485272 3.813499 15.62671848 3.9375 10.875 C4.2457386 6.2732154 4.2457386 6.2732154 3 2 C2.01 1.34 1.02 0.68 0 0 Z " fill="#77709B" transform="translate(353,486)"/>
<path d="M0 0 C3.67230705 3.07999946 4.56802365 5.2482602 5 10 C4.01 10.495 4.01 10.495 3 11 C1.5393715 8.35261084 1 7.10551666 1 4 C0.34 4 -0.32 4 -1 4 C-1.33 4.66 -1.66 5.32 -2 6 C-2 5.01 -2 4.02 -2 3 C-1.34 3 -0.68 3 0 3 C0 2.01 0 1.02 0 0 Z " fill="#686091" transform="translate(191,488)"/>
<path d="M0 0 C1.32 0.66 2.64 1.32 4 2 C4 3.32 4 4.64 4 6 C3.43796875 5.85691406 2.8759375 5.71382813 2.296875 5.56640625 C-0.04545453 4.98879098 -2.39417659 4.45716693 -4.75 3.9375 C-5.54921875 3.76089844 -6.3484375 3.58429688 -7.171875 3.40234375 C-7.77515625 3.26957031 -8.3784375 3.13679688 -9 3 C-9 2.67 -9 2.34 -9 2 C-6.03 2 -3.06 2 0 2 C0 1.34 0 0.68 0 0 Z " fill="#756E9A" transform="translate(169,486)"/>
<path d="M0 0 C1 3 1 3 0.375 5.3125 C-1.35251833 8.68901309 -3.48959474 11.15927826 -6 14 C-6.66 13.67 -7.32 13.34 -8 13 C-5.36 8.71 -2.72 4.42 0 0 Z " fill="#151121" transform="translate(406,179)"/>
<path d="M0 0 C2 1.8125 2 1.8125 4 4 C4 4.99 4 5.98 4 7 C3.01 7.33 2.02 7.66 1 8 C0.67 8.99 0.34 9.98 0 11 C-0.22786458 8.98177083 -0.45572917 6.96354167 -0.68359375 4.9453125 C-0.91292961 2.92595684 -0.91292961 2.92595684 -2 1 C-1.34 0.67 -0.68 0.34 0 0 Z " fill="#625889" transform="translate(321,488)"/>
<path d="M0 0 C1.10235591 3.3741029 0.97848812 4.06346006 -0.25 7.6875 C-2 11 -2 11 -5 12 C-5.33 11.34 -5.66 10.68 -6 10 C-4.78515625 7.6171875 -4.78515625 7.6171875 -3.0625 4.875 C-2.21365234 3.50988281 -2.21365234 3.50988281 -1.34765625 2.1171875 C-0.90292969 1.41851562 -0.45820313 0.71984375 0 0 Z " fill="#120F1C" transform="translate(396,195)"/>
<path d="M0 0 C0.99 0 1.98 0 3 0 C1.6302836 3.99500618 -0.25722422 6.80009492 -3 10 C-3.33 8.35 -3.66 6.7 -4 5 C-3.34 5 -2.68 5 -2 5 C-1.7834375 4.0409375 -1.7834375 4.0409375 -1.5625 3.0625 C-1 1 -1 1 0 0 Z " fill="#12101E" transform="translate(302,196)"/>
<path d="M0 0 C0.33 0.66 0.66 1.32 1 2 C-0.95893015 4.24914203 -2.41691312 5.78944085 -5.25 6.8125 C-8.96327995 7.06567818 -12.32030542 6.56130934 -16 6 C-16 5.67 -16 5.34 -16 5 C-15.26394531 4.97421875 -14.52789062 4.9484375 -13.76953125 4.921875 C-6.08058844 4.50939957 -6.08058844 4.50939957 0 0 Z " fill="#151229" transform="translate(324,504)"/>
<path d="M0 0 C2.475 0.495 2.475 0.495 5 1 C5.33 2.65 5.66 4.3 6 6 C4.35 5.67 2.7 5.34 1 5 C0.67 3.35 0.34 1.7 0 0 Z " fill="#6F6693" transform="translate(132,503)"/>
<path d="M0 0 C2.66735273 2.48952921 4.55746343 4.63408134 6 8 C4.35 8.33 2.7 8.66 1 9 C-0.06546953 5.8035914 -0.07427838 3.34252724 0 0 Z " fill="#0F0B19" transform="translate(242,286)"/>
<path d="M0 0 C0.66 0.66 1.32 1.32 2 2 C1.74739753 5.78903708 -0.27849443 7.54186593 -3 10 C-3.66 9.67 -4.32 9.34 -5 9 C-3.35 6.03 -1.7 3.06 0 0 Z " fill="#120E1B" transform="translate(364,246)"/>
<path d="M0 0 C2 2 2 2 2.375 5.4375 C2 9 2 9 0 10.9375 C-0.66 11.288125 -1.32 11.63875 -2 12 C-1 3.42857143 -1 3.42857143 0 0 Z " fill="#7C749F" transform="translate(178,85)"/>
<path d="M0 0 C0.33 0.99 0.66 1.98 1 3 C-0.65 4.32 -2.3 5.64 -4 7 C-4.33 6.01 -4.66 5.02 -5 4 C-5.66 3.67 -6.32 3.34 -7 3 C-4.69 2.01 -2.38 1.02 0 0 Z " fill="#6F6697" transform="translate(324,501)"/>
<path d="M0 0 C0.66 0.33 1.32 0.66 2 1 C1.8125 3.375 1.8125 3.375 1 6 C-1.5625 7.3125 -1.5625 7.3125 -4 8 C-3.6875 5.125 -3.6875 5.125 -3 2 C-2.01 1.34 -1.02 0.68 0 0 Z " fill="#746C9A" transform="translate(395,495)"/>
<path d="M0 0 C4.98862849 -0.29344873 7.96229058 -0.05887078 12 3 C12 3.33 12 3.66 12 4 C10.37399059 3.9129995 8.74910322 3.8048219 7.125 3.6875 C6.22007812 3.62949219 5.31515625 3.57148438 4.3828125 3.51171875 C2 3 2 3 0 0 Z " fill="#68628F" transform="translate(309,485)"/>
<path d="M0 0 C3.875 1.75 3.875 1.75 5 4 C4.67 4.66 4.34 5.32 4 6 C0.7 5.67 -2.6 5.34 -6 5 C-6 4.67 -6 4.34 -6 4 C-4.35 4 -2.7 4 -1 4 C-0.67 2.68 -0.34 1.36 0 0 Z " fill="#131118" transform="translate(235,481)"/>
<path d="M0 0 C2.72426311 2.35277269 3.8141763 4.62496331 5 8 C2.03 7.505 2.03 7.505 -1 7 C-1.04254356 5.00045254 -1.04080783 2.99958364 -1 1 C-0.67 0.67 -0.34 0.34 0 0 Z " fill="#7D76A4" transform="translate(284,207)"/>
<path d="M0 0 C0.66 0.66 1.32 1.32 2 2 C1.98252112 4.59269983 1.86231408 7.0525154 1.625 9.625 C1.56828125 10.33140625 1.5115625 11.0378125 1.453125 11.765625 C1.31159079 13.51121361 1.15702613 15.25573673 1 17 C-0.32 17 -1.64 17 -3 17 C-3 16.34 -3 15.68 -3 15 C-2.34 15 -1.68 15 -1 15 C-0.67 10.05 -0.34 5.1 0 0 Z " fill="#635B83" transform="translate(211,492)"/>
<path d="M0 0 C0 1.65 0 3.3 0 5 C-0.66 4.67 -1.32 4.34 -2 4 C-3.53668865 3.77532169 -5.07968054 3.59203195 -6.625 3.4375 C-7.44226563 3.35371094 -8.25953125 3.26992187 -9.1015625 3.18359375 C-9.72804688 3.12300781 -10.35453125 3.06242188 -11 3 C-7.20844146 1.05276952 -4.29965574 0 0 0 Z M-4 4 C-2 5 -2 5 -2 5 Z " fill="#766D9B" transform="translate(289,218)"/>
<path d="M0 0 C1 4 1 4 -0.9375 7.25 C-1.618125 8.1575 -2.29875 9.065 -3 10 C-3.99 9.67 -4.98 9.34 -6 9 C-4.02 6.03 -2.04 3.06 0 0 Z " fill="#8179A5" transform="translate(303,200)"/>
<path d="M0 0 C4.23431576 3.60700972 6.4692099 8.14586161 9 13 C8.34 13 7.68 13 7 13 C6.525625 12.195625 6.05125 11.39125 5.5625 10.5625 C4.20016328 7.7081924 4.20016328 7.7081924 1 7 C0.67 4.69 0.34 2.38 0 0 Z " fill="#867FA8" transform="translate(267,181)"/>
<path d="M0 0 C0.33 0.99 0.66 1.98 1 3 C-0.17578125 4.51953125 -0.17578125 4.51953125 -2 6 C-4.48046875 6.07421875 -4.48046875 6.07421875 -7.1875 5.6875 C-8.08855469 5.56761719 -8.98960937 5.44773437 -9.91796875 5.32421875 C-10.60503906 5.21722656 -11.29210937 5.11023438 -12 5 C-12 4.67 -12 4.34 -12 4 C-10.95199219 3.81824219 -10.95199219 3.81824219 -9.8828125 3.6328125 C-8.51769531 3.38144531 -8.51769531 3.38144531 -7.125 3.125 C-5.76761719 2.88136719 -5.76761719 2.88136719 -4.3828125 2.6328125 C-1.83494012 2.16955297 -1.83494012 2.16955297 0 0 Z " fill="#141123" transform="translate(296,505)"/>
<path d="M0 0 C0.33 0.66 0.66 1.32 1 2 C2.65 1.34 4.3 0.68 6 0 C6.33 1.32 6.66 2.64 7 4 C4.36 4.33 1.72 4.66 -1 5 C-1.33 3.68 -1.66 2.36 -2 1 C-1.34 0.67 -0.68 0.34 0 0 Z " fill="#635988" transform="translate(129,499)"/>
<path d="M0 0 C0.66 1.65 1.32 3.3 2 5 C1.34 5 0.68 5 0 5 C-0.33 4.34 -0.66 3.68 -1 3 C-1.66 3 -2.32 3 -3 3 C-3.33 3.66 -3.66 4.32 -4 5 C-3.34 5.33 -2.68 5.66 -2 6 C-2.66 6 -3.32 6 -4 6 C-4.33 6.66 -4.66 7.32 -5 8 C-5.33 6.02 -5.66 4.04 -6 2 C-3 0 -3 0 0 0 Z " fill="#655D8B" transform="translate(403,486)"/>
<path d="M0 0 C1.9375 0.375 1.9375 0.375 4 1 C4.33 1.66 4.66 2.32 5 3 C3.68 4.32 2.36 5.64 1 7 C0 6 0 6 -0.0625 2.9375 C-0.041875 1.968125 -0.02125 0.99875 0 0 Z " fill="#131313" transform="translate(472,414)"/>
<path d="M0 0 C3.96 0 7.92 0 12 0 C12 1.98 12 3.96 12 6 C11.34 4.68 10.68 3.36 10 2 C8.1128125 1.9690625 8.1128125 1.9690625 6.1875 1.9375 C5.47980469 1.92589844 4.77210938 1.91429687 4.04296875 1.90234375 C1.79694539 1.91736783 1.79694539 1.91736783 -1 3 C-0.67 2.01 -0.34 1.02 0 0 Z " fill="#D7D7D7" transform="translate(310,400)"/>
<path d="M0 0 C0.66 0 1.32 0 2 0 C3.32 2.31 4.64 4.62 6 7 C4.02 7 2.04 7 0 7 C0 4.69 0 2.38 0 0 Z " fill="#120E1E" transform="translate(188,201)"/>
<path d="M0 0 C0.66 0 1.32 0 2 0 C1 2 1 2 0 4 C-0.474375 5.051875 -0.94875 6.10375 -1.4375 7.1875 C-3 10 -3 10 -6 11 C-4.54997977 6.89160936 -2.6020866 3.49655387 0 0 Z " fill="#130F23" transform="translate(429,143)"/>
<path d="M0 0 C0.66 0.33 1.32 0.66 2 1 C1.67 4.63 1.34 8.26 1 12 C0.01 11.67 -0.98 11.34 -2 11 C-1 3.57142857 -1 3.57142857 0 0 Z " fill="#7E76A1" transform="translate(171,116)"/>
<path d="M0 0 C0.33 1.32 0.66 2.64 1 4 C1.66 4 2.32 4 3 4 C3 5.65 3 7.3 3 9 C-0.75283733 7.54728878 -0.75283733 7.54728878 -1.875 5.0625 C-2 3 -2 3 0 0 Z " fill="#67608B" transform="translate(276,490)"/>
<path d="M0 0 C0 0.66 0 1.32 0 2 C-0.66 2 -1.32 2 -2 2 C-1.67 3.32 -1.34 4.64 -1 6 C-2.98 6.99 -2.98 6.99 -5 8 C-5.36625971 3.48279689 -5.36625971 3.48279689 -3.625 1.1875 C-2 0 -2 0 0 0 Z " fill="#706899" transform="translate(282,486)"/>
<path d="M0 0 C1.5 1.375 1.5 1.375 3 3 C3 3.66 3 4.32 3 5 C1.35 5 -0.3 5 -2 5 C-2.33 3.68 -2.66 2.36 -3 1 C-2.01 0.67 -1.02 0.34 0 0 Z " fill="#6E688D" transform="translate(201,504)"/>
<path d="M0 0 C0.804375 0.4640625 0.804375 0.4640625 1.625 0.9375 C4.3984957 2.17827439 7.00042837 2.5909675 10 3 C6.5647952 5.29013653 5.014669 5.17842973 1 5 C0.67 3.35 0.34 1.7 0 0 Z " fill="#6C638F" transform="translate(305,502)"/>
<path d="M0 0 C4.29 0 8.58 0 13 0 C11 2 11 2 8.9765625 2.125 C7.4140478 2.04194274 5.85154765 1.95861125 4.2890625 1.875 C1.72533765 2.01499863 0.1979345 2.71536249 -2 4 C-1.34 2.68 -0.68 1.36 0 0 Z " fill="#100D20" transform="translate(119,504)"/>
<path d="M0 0 C0.66 0 1.32 0 2 0 C2 2.97 2 5.94 2 9 C1.01 9.33 0.02 9.66 -1 10 C-1.33 9.01 -1.66 8.02 -2 7 C-1.34 6.67 -0.68 6.34 0 6 C0.33 5.01 0.66 4.02 1 3 C0.34 2.67 -0.32 2.34 -1 2 C-0.67 1.34 -0.34 0.68 0 0 Z " fill="#0E0C18" transform="translate(204,497)"/>
<path d="M0 0 C0.99 0.33 1.98 0.66 3 1 C1.02 3.97 1.02 3.97 -1 7 C-1.66 6.67 -2.32 6.34 -3 6 C-2.42655063 3.13275314 -2.1385485 2.1385485 0 0 Z " fill="#847BA9" transform="translate(371,231)"/>
<path d="M0 0 C2.95929119 2.75520215 5.03681826 5.46627288 7 9 C6.01 9 5.02 9 4 9 C0.8217901 5.7309841 0 4.67834007 0 0 Z " fill="#8279A7" transform="translate(346,136)"/>
<path d="M0 0 C0.33 0 0.66 0 1 0 C1.33 2.64 1.66 5.28 2 8 C0.35 8.66 -1.3 9.32 -3 10 C-2.01 6.7 -1.02 3.4 0 0 Z " fill="#282828" transform="translate(309,451)"/>
<path d="M0 0 C2.25245881 2.68841859 3.88213958 4.64641875 5 8 C4.34 8.66 3.68 9.32 3 10 C0.96564469 6.27034861 0 4.33094958 0 0 Z " fill="#151022" transform="translate(266,323)"/>
<path d="M0 0 C2.97 0 5.94 0 9 0 C5 2 5 2 2 2 C2.66 3.32 3.32 4.64 4 6 C3.01 5.67 2.02 5.34 1 5 C0.67 3.35 0.34 1.7 0 0 Z " fill="#191427" transform="translate(210,234)"/>
<path d="M0 0 C1.65 0 3.3 0 5 0 C2.525 4.455 2.525 4.455 0 9 C-1 6 -1 6 0 3.9375 C0.33 3.298125 0.66 2.65875 1 2 C0.67 1.34 0.34 0.68 0 0 Z " fill="#8880AA" transform="translate(469,72)"/>
<path d="M0 0 C2.31 0 4.62 0 7 0 C7 0.66 7 1.32 7 2 C7.66 2.33 8.32 2.66 9 3 C7.3125 4.1875 7.3125 4.1875 5 5 C2.25 3.75 2.25 3.75 0 2 C0 1.34 0 0.68 0 0 Z " fill="#211F2E" transform="translate(407,507)"/>
<path d="M0 0 C2.60334924 2.71182212 2.99456691 3.89133813 3.1875 7.75 C3.0946875 9.35875 3.0946875 9.35875 3 11 C1.5 10 1.5 10 0 8 C-0.27345479 5.28153765 -0.13491285 2.74322801 0 0 Z " fill="#161427" transform="translate(305,493)"/>
<path d="M0 0 C2.475 0.99 2.475 0.99 5 2 C4.34 2.66 3.68 3.32 3 4 C3.33 4.66 3.66 5.32 4 6 C2.02 6 0.04 6 -2 6 C-1.67 5.38125 -1.34 4.7625 -1 4.125 C0.14193235 2.08981656 0.14193235 2.08981656 0 0 Z " fill="#131021" transform="translate(167,490)"/>
<path d="M0 0 C2.475 0.99 2.475 0.99 5 2 C5 2.33 5 2.66 5 3 C3.02 3 1.04 3 -1 3 C-1.33 3.99 -1.66 4.98 -2 6 C-2.33 5.01 -2.66 4.02 -3 3 C-2.01 2.01 -1.02 1.02 0 0 Z " fill="#100E1D" transform="translate(462,483)"/>
<path d="M0 0 C0.33 0.66 0.66 1.32 1 2 C1.99 1.67 2.98 1.34 4 1 C4 1.66 4 2.32 4 3 C3.34 3 2.68 3 2 3 C2 4.65 2 6.3 2 8 C0.4375 6.8125 0.4375 6.8125 -1 5 C-0.6875 2.3125 -0.6875 2.3125 0 0 Z " fill="#8578A9" transform="translate(328,265)"/>
<path d="M0 0 C0.99 0 1.98 0 3 0 C1.92598892 2.91517292 1.22189824 4.77810176 -1 7 C-1.625 4.625 -1.625 4.625 -2 2 C-1.34 1.34 -0.68 0.68 0 0 Z " fill="#8077A3" transform="translate(380,216)"/>
<path d="M0 0 C2.475 0.495 2.475 0.495 5 1 C5 2.32 5 3.64 5 5 C4.01 5 3.02 5 2 5 C1.34 3.35 0.68 1.7 0 0 Z " fill="#0D0A1F" transform="translate(376,490)"/>
<path d="M0 0 C0.66 0.33 1.32 0.66 2 1 C1.67 2.65 1.34 4.3 1 6 C0.01 5.67 -0.98 5.34 -2 5 C-2.33 4.01 -2.66 3.02 -3 2 C-2.01 1.34 -1.02 0.68 0 0 Z " fill="#857AAB" transform="translate(339,280)"/>
<path d="M0 0 C1.32 0 2.64 0 4 0 C4 0.66 4 1.32 4 2 C3.34 2 2.68 2 2 2 C1.67 2.99 1.34 3.98 1 5 C0.01 4.67 -0.98 4.34 -2 4 C-1.34 2.68 -0.68 1.36 0 0 Z " fill="#8278A8" transform="translate(306,195)"/>
<path d="M0 0 C0.66 0 1.32 0 2 0 C1.67 2.97 1.34 5.94 1 9 C-1 6 -1 6 -0.625 2.8125 C-0.41875 1.884375 -0.2125 0.95625 0 0 Z " fill="#1A1625" transform="translate(180,69)"/>
<path d="M0 0 C1.32 0.66 2.64 1.32 4 2 C3.34 3.65 2.68 5.3 2 7 C0.4375 5.75 0.4375 5.75 -1 4 C-0.6875 1.8125 -0.6875 1.8125 0 0 Z " fill="#70659A" transform="translate(346,501)"/>
<path d="M0 0 C0.99 0.33 1.98 0.66 3 1 C3 1.66 3 2.32 3 3 C3.66 3 4.32 3 5 3 C4.67 3.66 4.34 4.32 4 5 C3.01 5 2.02 5 1 5 C1 4.34 1 3.68 1 3 C0.34 3 -0.32 3 -1 3 C-0.67 2.01 -0.34 1.02 0 0 Z " fill="#6F649D" transform="translate(400,488)"/>
<path d="M0 0 C0.66 0 1.32 0 2 0 C1.25 2.4375 1.25 2.4375 0 5 C-2.125 5.8125 -2.125 5.8125 -4 6 C-2.7260411 3.96166576 -1.38938077 1.96147874 0 0 Z " fill="#100D1E" transform="translate(466,488)"/>
<path d="M0 0 C0.66 0.99 1.32 1.98 2 3 C0.35 4.65 -1.3 6.3 -3 8 C-3.66 7.67 -4.32 7.34 -5 7 C-3.35 4.69 -1.7 2.38 0 0 Z " fill="#242424" transform="translate(385,444)"/>
<path d="M0 0 C-0.33 0.99 -0.66 1.98 -1 3 C-3.97 2.67 -6.94 2.34 -10 2 C-10 1.67 -10 1.34 -10 1 C-6.56484998 0.37542727 -3.50935186 0 0 0 Z " fill="#18132A" transform="translate(176,154)"/>
</svg>
